<svg width="624" height="392" xmlns="http://www.w3.org/2000/svg" xmlns:xlink="http://www.w3.org/1999/xlink" xml:space="preserve" overflow="hidden"><defs><clipPath id="clip0"><rect x="0" y="0" width="624" height="392"/></clipPath><clipPath id="clip1"><rect x="0" y="0" width="624" height="392"/></clipPath><clipPath id="clip2"><rect x="0" y="0" width="624" height="391"/></clipPath><clipPath id="clip3"><rect x="31" y="8" width="592" height="351"/></clipPath><clipPath id="clip4"><rect x="31" y="8" width="592" height="351"/></clipPath><clipPath id="clip5"><rect x="75" y="24" width="288" height="17"/></clipPath></defs><g clip-path="url(#clip0)"><g clip-path="url(#clip1)"><g clip-path="url(#clip2)"><path d="M144.637 554.657 777.195 554.657 777.195 950.915 144.637 950.915Z" fill="#FFFFFF" fill-rule="nonzero" fill-opacity="1" transform="matrix(1.00124 0 0 1 -149.488 -558.317)"/><path d="M180.601 916.768 771.352 916.768M180.601 833.414 771.352 833.414M180.601 750.059 771.352 750.059M180.601 666.965 771.352 666.965M180.601 583.61 771.352 583.61" stroke="#D9D9D9" stroke-width="0.324589" stroke-linecap="butt" stroke-linejoin="round" stroke-miterlimit="10" stroke-opacity="1" fill="none" fill-rule="nonzero" transform="matrix(1.00124 0 0 1 -149.488 -558.317)"/><path d="M180.601 566.991 180.601 916.768M241.883 566.991 241.883 916.768M302.906 566.991 302.906 916.768M363.929 566.991 363.929 916.768M424.951 566.991 424.951 916.768M486.234 566.991 486.234 916.768M547.256 566.991 547.256 916.768M608.279 566.991 608.279 916.768M669.561 566.991 669.561 916.768M730.584 566.991 730.584 916.768" stroke="#D9D9D9" stroke-width="0.324589" stroke-linecap="butt" stroke-linejoin="round" stroke-miterlimit="10" stroke-opacity="1" fill="none" fill-rule="nonzero" transform="matrix(1.00124 0 0 1 -149.488 -558.317)"/><g clip-path="url(#clip3)"><path d="M183.977 916.768 190.728 916.768 197.739 916.768 204.491 916.768 211.242 916.768 217.994 916.768 224.745 916.768 231.497 916.768 238.248 916.768 245.259 916.768 252.011 916.768 258.762 916.768 265.513 916.768 272.265 916.768 279.016 891.58 285.768 866.651 292.779 828.22 299.53 770.833 306.282 733.44 313.033 691.893 319.785 678.65 326.536 619.964 333.288 624.898 340.299 621.782 347.05 618.146 353.802 618.146 360.553 618.146 367.304 616.848 374.056 615.29 381.067 618.666 387.818 616.848 394.57 618.666 401.321 616.848 408.073 625.158 414.824 633.727 421.576 663.849 428.587 725.91 435.338 740.971 442.09 765.12 448.841 783.037 455.592 797.579 462.344 812.64 469.095 821.988 476.107 842.762 482.858 847.436 489.609 857.563 496.361 859.64 503.112 856.005 509.864 858.861 516.615 863.276 523.626 866.911 530.378 867.95 537.129 871.066 543.881 873.403 550.632 877.038 557.383 879.375 564.135 880.674 571.146 882.232 577.897 884.049 584.649 886.127 591.4 886.906 598.152 888.724 604.903 890.281 611.655 890.801 618.666 892.099 625.417 893.398 632.169 894.436 638.92 895.735 645.672 896.254 652.423 897.293 659.174 898.072 666.186 898.331 672.937 898.591 679.688 899.11 686.44 899.63 693.191 900.149 699.943 900.668 706.954 901.188 713.705 901.707 720.457 902.226 727.208 902.746 733.96 903.265 740.711 903.784 747.463 904.044 754.474 904.563 761.225 905.083 767.977 905.602 774.728 906.121 774.728 916.768 767.977 916.768 761.225 916.768 754.474 916.768 747.463 916.768 740.711 916.768 733.96 916.768 727.208 916.768 720.457 916.768 713.705 916.768 706.954 916.768 699.943 916.768 693.191 916.768 686.44 916.768 679.688 916.768 672.937 916.768 666.186 916.768 659.174 916.768 652.423 916.768 645.672 916.768 638.92 916.768 632.169 916.768 625.417 916.768 618.666 916.768 611.655 916.768 604.903 916.768 598.152 916.768 591.4 916.768 584.649 916.768 577.897 916.768 571.146 916.768 564.135 916.768 557.383 916.768 550.632 916.768 543.881 916.768 537.129 916.768 530.378 916.768 523.626 916.768 516.615 916.768 509.864 916.768 503.112 916.768 496.361 916.768 489.609 916.768 482.858 916.768 476.107 916.768 469.095 916.768 462.344 916.768 455.592 916.768 448.841 916.768 442.09 916.768 435.338 916.768 428.587 916.768 421.576 916.768 414.824 916.768 408.073 916.768 401.321 916.768 394.57 916.768 387.818 916.768 381.067 916.768 374.056 916.768 367.304 916.768 360.553 916.768 353.802 916.768 347.05 916.768 340.299 916.768 333.288 916.768 326.536 916.768 319.785 916.768 313.033 916.768 306.282 916.768 299.53 916.768 292.779 916.768 285.768 916.768 279.016 916.768 272.265 916.768 265.513 916.768 258.762 916.768 252.011 916.768 245.259 916.768 238.248 916.768 231.497 916.768 224.745 916.768 217.994 916.768 211.242 916.768 204.491 916.768 197.739 916.768 190.728 916.768 183.977 916.768Z" stroke="#00B050" stroke-width="0.324589" stroke-linecap="butt" stroke-linejoin="round" stroke-miterlimit="10" stroke-opacity="0.188235" fill="#5B9BD5" fill-rule="nonzero" fill-opacity="0.811765" transform="matrix(1.00124 0 0 1 -149.488 -558.317)"/></g><g clip-path="url(#clip4)"><path d="M183.977 916.768 190.728 916.768 197.739 916.768 204.491 916.768 211.242 916.768 217.994 916.768 224.745 916.768 231.497 916.768 238.248 916.768 245.259 916.768 252.011 916.768 258.762 916.768 265.513 916.768 272.265 916.768 279.016 891.58 285.768 866.651 292.779 828.22 299.53 770.833 306.282 733.44 313.033 691.893 319.785 678.65 326.536 619.964 333.288 624.898 340.299 621.782 347.05 618.146 353.802 618.146 360.553 618.146 367.304 616.848 374.056 615.29 381.067 618.666 387.818 616.848 394.57 618.666 401.321 616.848 408.073 616.848 414.824 622.042 421.576 625.158 428.587 626.975 435.338 633.727 442.09 643.594 448.841 676.313 455.592 702.539 462.344 729.286 469.095 746.164 476.107 783.557 482.858 791.866 489.609 810.303 496.361 814.198 503.112 807.706 509.864 812.9 516.615 820.69 523.626 827.182 530.378 829.259 537.129 834.452 543.881 838.867 550.632 845.358 557.383 849.254 564.135 852.11 571.146 854.707 577.897 857.823 584.649 861.718 591.4 863.016 598.152 866.392 604.903 868.989 611.655 870.287 618.666 872.364 625.417 874.961 632.169 876.779 638.92 878.856 645.672 880.154 652.423 881.972 659.174 883.27 666.186 884.309 672.937 885.088 679.688 885.867 686.44 886.646 693.191 887.425 699.943 888.464 706.954 889.243 713.705 890.022 720.457 890.801 727.208 891.58 733.96 892.619 740.711 893.398 747.463 894.177 754.474 894.956 761.225 895.735 767.977 896.254 774.728 896.773" stroke="#00B050" stroke-width="1.73114" stroke-linecap="round" stroke-linejoin="round" stroke-miterlimit="10" stroke-dasharray="5.19342 6.92456" stroke-opacity="1" fill="none" fill-rule="nonzero" transform="matrix(1.00124 0 0 1 -149.488 -558.317)"/></g><text fill="#595959" fill-opacity="1" font-family="Calibri,Calibri_MSFontService,sans-serif" font-style="normal" font-variant="normal" font-weight="400" font-stretch="normal" font-size="47" text-anchor="start" direction="ltr" writing-mode="lr-tb" unicode-bidi="normal" text-decoration="none" transform="matrix(1.592e-17 -0.259671 0.259993 1.59002e-17 23.3443 134)">Production</text><text fill="#595959" fill-opacity="1" font-family="Calibri,Calibri_MSFontService,sans-serif" font-style="normal" font-variant="normal" font-weight="400" font-stretch="normal" font-size="47" text-anchor="start" direction="ltr" writing-mode="lr-tb" unicode-bidi="normal" text-decoration="none" transform="matrix(0.259993 0 0 0.259671 524.185 381)">Time</text><path d="M144.637 554.657 777.195 554.657 777.195 950.915 144.637 950.915Z" stroke="#D9D9D9" stroke-width="0.432786" stroke-linecap="butt" stroke-linejoin="round" stroke-miterlimit="10" stroke-opacity="1" fill="none" fill-rule="nonzero" transform="matrix(1.00124 0 0 1 -149.488 -558.317)"/><g clip-path="url(#clip5)"><text fill="#000000" fill-opacity="1" font-family="Calibri,Calibri_MSFontService,sans-serif" font-style="normal" font-variant="normal" font-weight="700" font-stretch="normal" font-size="50" text-anchor="start" direction="ltr" writing-mode="lr-tb" unicode-bidi="normal" text-decoration="none" transform="matrix(0.259993 0 0 0.259671 198.388 39)">plateau</text></g><text fill="#000000" fill-opacity="1" font-family="Calibri,Calibri_MSFontService,sans-serif" font-style="normal" font-variant="normal" font-weight="700" font-stretch="normal" font-size="50" text-anchor="start" direction="ltr" writing-mode="lr-tb" unicode-bidi="normal" text-decoration="none" transform="matrix(0.0683787 0.250529 -0.25084 0.068294 315.406 93)">production</text><text fill="#000000" fill-opacity="1" font-family="Calibri,Calibri_MSFontService,sans-serif" font-style="normal" font-variant="normal" font-weight="700" font-stretch="normal" font-size="50" text-anchor="start" direction="ltr" writing-mode="lr-tb" unicode-bidi="normal" text-decoration="none" transform="matrix(0.0683787 0.250529 -0.25084 0.068294 331.863 154)">decline</text><path d="M180.991 916.119C180.991 911.959 182.478 908.588 184.313 908.588L200.13 908.588C201.965 908.588 203.452 905.218 203.452 901.058 203.452 905.218 204.94 908.588 206.774 908.588L222.591 908.588C224.426 908.588 225.914 911.959 225.914 916.119" stroke="#000000" stroke-width="0.973766" stroke-linecap="butt" stroke-linejoin="miter" stroke-miterlimit="8" stroke-opacity="1" fill="none" fill-rule="evenodd" transform="matrix(1.00124 0 0 1 -149.488 -558.317)"/><path d="M355.23 916.638C355.23 920.868 353.716 924.298 351.851 924.298L312.646 924.298C310.782 924.298 309.268 927.729 309.268 931.959 309.268 927.729 307.754 924.298 305.89 924.298L266.685 924.298C264.82 924.298 263.306 920.868 263.306 916.638" stroke="#000000" stroke-width="0.973766" stroke-linecap="butt" stroke-linejoin="miter" stroke-miterlimit="8" stroke-opacity="1" fill="none" fill-rule="evenodd" transform="matrix(1.00124 0 0 1 -149.488 -558.317)"/><text fill="#000000" fill-opacity="1" font-family="Calibri,Calibri_MSFontService,sans-serif" font-style="normal" font-variant="normal" font-weight="700" font-stretch="normal" font-size="50" text-anchor="start" direction="ltr" writing-mode="lr-tb" unicode-bidi="normal" text-decoration="none" transform="matrix(-4.77599e-17 -0.259671 0.259993 -4.77008e-17 63.3164 333)">exploitation and appraisal phase</text><text fill="#000000" fill-opacity="1" font-family="Calibri,Calibri_MSFontService,sans-serif" font-style="normal" font-variant="normal" font-weight="700" font-stretch="normal" font-size="45" text-anchor="start" direction="ltr" writing-mode="lr-tb" unicode-bidi="normal" text-decoration="none" transform="matrix(0.259993 0 0 0.259671 90.0856 385)">Drilling</text><text fill="#000000" fill-opacity="1" font-family="Calibri,Calibri_MSFontService,sans-serif" font-style="normal" font-variant="normal" font-weight="700" font-stretch="normal" font-size="45" text-anchor="start" direction="ltr" writing-mode="lr-tb" unicode-bidi="normal" text-decoration="none" transform="matrix(0.259993 0 0 0.259671 127.582 385)">and completion phase</text><path d="M226.952 916.638C226.952 912.478 228.44 909.108 230.275 909.108L260.375 909.108C262.208 909.108 263.696 905.737 263.696 901.577 263.696 905.737 265.184 909.108 267.017 909.108L297.118 909.108C298.951 909.108 300.439 912.478 300.439 916.638" stroke="#000000" stroke-width="0.973766" stroke-linecap="butt" stroke-linejoin="miter" stroke-miterlimit="8" stroke-opacity="1" fill="none" fill-rule="evenodd" transform="matrix(1.00124 0 0 1 -149.488 -558.317)"/><text fill="#000000" fill-opacity="1" font-family="Calibri,Calibri_MSFontService,sans-serif" font-style="normal" font-variant="normal" font-weight="700" font-stretch="normal" font-size="50" text-anchor="start" direction="ltr" writing-mode="lr-tb" unicode-bidi="normal" text-decoration="none" transform="matrix(-4.77599e-17 -0.259671 0.259993 -4.77008e-17 116.108 332)">CPF/GTP construction and start</text><text fill="#000000" fill-opacity="1" font-family="Calibri,Calibri_MSFontService,sans-serif" font-style="normal" font-variant="normal" font-weight="700" font-stretch="normal" font-size="50" text-anchor="start" direction="ltr" writing-mode="lr-tb" unicode-bidi="normal" text-decoration="none" transform="matrix(-4.77599e-17 -0.259671 0.259993 -4.77008e-17 116.108 164)">-</text><text fill="#000000" fill-opacity="1" font-family="Calibri,Calibri_MSFontService,sans-serif" font-style="normal" font-variant="normal" font-weight="700" font-stretch="normal" font-size="50" text-anchor="start" direction="ltr" writing-mode="lr-tb" unicode-bidi="normal" text-decoration="none" transform="matrix(-4.77599e-17 -0.259671 0.259993 -4.77008e-17 116.108 159)">up phase</text><path d="M770.963 916.119C770.963 918.773 770.015 920.923 768.844 920.923L565.475 920.923C564.304 920.923 563.356 923.073 563.356 925.727 563.356 923.073 562.408 920.923 561.237 920.923L357.868 920.923C356.697 920.923 355.749 918.773 355.749 916.119" stroke="#000000" stroke-width="0.973766" stroke-linecap="butt" stroke-linejoin="miter" stroke-miterlimit="8" stroke-opacity="1" fill="none" fill-rule="evenodd" transform="matrix(1.00124 0 0 1 -149.488 -558.317)"/><path d="M170.445 634.825 170.355 586.596 171.653 586.596 171.744 634.823ZM167.76 587.251 170.993 580.754 174.251 587.24Z" fill="#000000" fill-rule="nonzero" fill-opacity="1" transform="matrix(1.00124 0 0 1 -149.488 -558.317)"/><path d="M712.669 935.854 755.258 936.041 755.253 937.339 712.664 937.152ZM754.619 933.441 761.098 936.716 754.591 939.933Z" fill="#000000" fill-rule="nonzero" fill-opacity="1" transform="matrix(1.00124 0 0 1 -149.488 -558.317)"/><path d="M620.224 762.004 744.346 762.004 744.346 822.507 620.224 822.507Z" stroke="#000000" stroke-width="0.324589" stroke-linecap="butt" stroke-linejoin="round" stroke-miterlimit="10" stroke-opacity="1" fill="none" fill-rule="nonzero" transform="matrix(1.00124 0 0 1 -149.488 -558.317)"/><text fill="#00B050" fill-opacity="1" font-family="Calibri,Calibri_MSFontService,sans-serif" font-style="normal" font-variant="normal" font-weight="700" font-stretch="normal" font-size="47" text-anchor="start" direction="ltr" writing-mode="lr-tb" unicode-bidi="normal" text-decoration="none" transform="matrix(0.259993 0 0 0.259671 487.448 230)">Production System </text><text fill="#00B050" fill-opacity="1" font-family="Calibri,Calibri_MSFontService,sans-serif" font-style="normal" font-variant="normal" font-weight="700" font-stretch="normal" font-size="47" text-anchor="start" direction="ltr" writing-mode="lr-tb" unicode-bidi="normal" text-decoration="none" transform="matrix(0.259993 0 0 0.259671 500.617 245)">Optimization</text><path d="M445.465 777.042C447.841 776.943 454.325 776.855 457.696 776.317 458.059 776.26 458.389 776.063 458.742 775.956 459.205 775.821 459.675 775.717 460.139 775.595 460.69 775.219 461.97 774.271 462.585 774.152 463.406 773.993 471.77 773.448 472.019 773.43 481.222 773.791 490.433 773.954 499.625 774.512 500.921 774.593 502.419 775.642 503.468 776.317 503.824 776.548 504.13 776.87 504.514 777.042 504.956 777.236 505.447 777.281 505.914 777.403 506.262 777.764 506.504 778.296 506.961 778.485 508.298 779.039 511.154 779.568 511.154 779.568 511.97 780.171 512.819 780.726 513.6 781.373 515.044 782.567 514.273 782.521 516.047 783.541 518.264 784.814 517.218 783.643 518.841 784.985 519.098 785.198 519.334 785.442 519.539 785.707 520.149 786.494 520.37 787.332 521.287 787.873 521.705 788.119 522.224 788.093 522.686 788.236 523.39 788.454 524.068 788.766 524.782 788.958 526.75 789.488 528.742 789.921 530.72 790.402 535.371 793.284 529.56 789.397 533.865 793.289 534.608 793.962 535.467 793.998 536.311 794.375 538.843 795.494 536.511 794.847 539.456 795.458L540.505 796.54" stroke="#41719C" stroke-width="1.29835" stroke-linecap="butt" stroke-linejoin="miter" stroke-miterlimit="8" stroke-dasharray="5.19342 3.89506" stroke-opacity="1" fill="none" fill-rule="evenodd" transform="matrix(1.00124 0 0 1 -149.488 -558.317)"/><text fill="#000000" fill-opacity="1" font-family="Calibri,Calibri_MSFontService,sans-serif" font-style="normal" font-variant="normal" font-weight="700" font-stretch="normal" font-size="50" text-anchor="start" direction="ltr" writing-mode="lr-tb" unicode-bidi="normal" text-decoration="none" transform="matrix(0.0447692 -0.255792 0.256109 0.0447138 138.031 187)">production ramp</text><text fill="#000000" fill-opacity="1" font-family="Calibri,Calibri_MSFontService,sans-serif" font-style="normal" font-variant="normal" font-weight="700" font-stretch="normal" font-size="50" text-anchor="start" direction="ltr" writing-mode="lr-tb" unicode-bidi="normal" text-decoration="none" transform="matrix(0.0447692 -0.255792 0.256109 0.0447138 153.732 97)">-</text><text fill="#000000" fill-opacity="1" font-family="Calibri,Calibri_MSFontService,sans-serif" font-style="normal" font-variant="normal" font-weight="700" font-stretch="normal" font-size="50" text-anchor="start" direction="ltr" writing-mode="lr-tb" unicode-bidi="normal" text-decoration="none" transform="matrix(0.0447692 -0.255792 0.256109 0.0447138 154.416 93)">up</text><path d="M542.323 647.23 735.258 647.23 735.258 744.866 542.323 744.866Z" stroke="#000000" stroke-width="0.324589" stroke-linecap="butt" stroke-linejoin="round" stroke-miterlimit="10" stroke-opacity="1" fill="none" fill-rule="nonzero" transform="matrix(1.00124 0 0 1 -149.488 -558.317)"/><text fill="#1F4E79" fill-opacity="1" font-family="Calibri,Calibri_MSFontService,sans-serif" font-style="normal" font-variant="normal" font-weight="700" font-stretch="normal" font-size="50" text-anchor="start" direction="ltr" writing-mode="lr-tb" unicode-bidi="normal" text-decoration="none" transform="matrix(0.259993 0 0 0.259671 402.81 118)">Well stimulation, Recompletion, </text><text fill="#1F4E79" fill-opacity="1" font-family="Calibri,Calibri_MSFontService,sans-serif" font-style="normal" font-variant="normal" font-weight="700" font-stretch="normal" font-size="50" text-anchor="start" direction="ltr" writing-mode="lr-tb" unicode-bidi="normal" text-decoration="none" transform="matrix(0.259993 0 0 0.259671 424.702 134)">Well cleaning, Wellhead </text><text fill="#1F4E79" fill-opacity="1" font-family="Calibri,Calibri_MSFontService,sans-serif" font-style="normal" font-variant="normal" font-weight="700" font-stretch="normal" font-size="50" text-anchor="start" direction="ltr" writing-mode="lr-tb" unicode-bidi="normal" text-decoration="none" transform="matrix(0.259993 0 0 0.259671 397.551 150)">compressor installation, IOR, EOR, </text><text fill="#1F4E79" fill-opacity="1" font-family="Calibri,Calibri_MSFontService,sans-serif" font-style="normal" font-variant="normal" font-weight="700" font-stretch="normal" font-size="50" text-anchor="start" direction="ltr" writing-mode="lr-tb" unicode-bidi="normal" text-decoration="none" transform="matrix(0.259993 0 0 0.259671 479.958 166)">etc.</text><path d="M0.743464-0.144483 31.2979 157.08 29.811 157.369-0.743464 0.144483ZM34.1272 155.758 31.8549 163.915 26.6926 157.203Z" fill="#000000" fill-rule="nonzero" fill-opacity="1" transform="matrix(1.00124 0 0 -1 135.725 231.404)"/><path d="M325.113 602.977 398.948 603.423 398.94 604.937 325.103 604.493ZM398.21 600.39 405.762 604.223 398.164 607.962Z" fill="#000000" fill-rule="nonzero" fill-opacity="1" transform="matrix(1.00124 0 0 1 -149.488 -558.317)"/><path d="M449.958 641.953 484.255 759.439 482.801 759.862 448.503 642.379ZM486.95 757.862 485.439 766.193 479.68 759.984Z" fill="#000000" fill-rule="nonzero" fill-opacity="1" transform="matrix(1.00124 0 0 1 -149.488 -558.317)"/><path d="M0.561289-0.508498 26.0175 27.5905 24.895 28.6074-0.561289 0.508498ZM27.7541 24.9952 30.0328 33.1506 22.1413 30.0803Z" fill="#1F4E79" fill-rule="nonzero" fill-opacity="1" transform="matrix(1.00124 0 0 -1 363.739 219.828)"/><path d="M0.341833-0.675843 48.4787 23.6712 47.7953 25.0229-0.341833 0.675843ZM49.1702 20.626 54.2195 27.4236 45.7519 27.3844Z" fill="#00B050" fill-rule="nonzero" fill-opacity="1" transform="matrix(-1.00124 0 0 1 470.284 264.06)"/><text fill="#000000" fill-opacity="1" font-family="Calibri,Calibri_MSFontService,sans-serif" font-style="normal" font-variant="normal" font-weight="700" font-stretch="normal" font-size="45" text-anchor="start" direction="ltr" writing-mode="lr-tb" unicode-bidi="normal" text-decoration="none" transform="matrix(0.259993 0 0 0.259671 401.279 382)">PSO</text><path d="M540.505 795.761C544.434 798.719 540.715 796.003 543.457 797.844 544.561 798.587 545.106 799.171 546.407 799.578 547.371 799.882 549.36 800.274 549.36 800.274 549.728 800.737 550.061 801.227 550.466 801.664 550.923 802.154 551.45 802.588 551.941 803.05 552.434 803.515 553 803.915 553.416 804.44 553.787 804.902 554.088 805.418 554.525 805.829 554.958 806.236 555.542 806.483 555.999 806.87 556.425 807.231 558.238 809.264 559.321 809.646 559.907 809.854 560.549 809.877 561.164 809.994 561.655 810.225 562.133 810.49 562.639 810.687 563.61 811.069 564.667 811.261 565.592 811.729 566.285 812.082 566.76 812.736 567.435 813.118 568.63 813.793 571.076 814.234 572.231 814.507 575.47 816.335 572.644 814.847 576.659 816.59 577.407 816.914 578.152 817.254 578.871 817.631 579.261 817.833 579.572 818.161 579.98 818.324 580.445 818.514 580.962 818.555 581.455 818.672 583.158 820.809 581.813 819.672 584.776 820.755 590.65 822.905 587.342 822.053 590.678 822.837 591.047 823.299 591.312 823.855 591.785 824.227 592.011 824.403 594.288 824.902 594.366 824.92 594.981 825.268 595.604 825.605 596.212 825.961 596.589 826.182 596.921 826.47 597.318 826.657 598.157 827.049 599.05 827.327 599.899 827.698 604.454 829.674 599.557 827.836 605.064 829.781 605.558 830.243 605.945 830.833 606.542 831.167 607.209 831.544 608.032 831.591 608.754 831.863 612.725 833.357 606.768 831.741 613.182 833.253 614.412 833.829 615.565 834.577 616.872 834.987 623.114 836.945 620.486 836.421 624.617 837.07 624.986 837.301 625.339 837.558 625.724 837.763 626.201 838.02 626.752 838.158 627.201 838.459 627.624 838.745 627.895 839.199 628.307 839.5 629.009 840.012 629.894 840.297 630.52 840.887 631.013 841.352 631.431 841.897 631.997 842.276 632.314 842.489 632.745 842.479 633.104 842.624 633.61 842.827 634.088 843.086 634.578 843.317 636.832 845.439 636.11 845.127 639.375 846.441 640.089 846.73 640.849 846.906 641.587 847.137 641.958 847.251 642.371 847.28 642.696 847.483 643.064 847.716 643.376 848.059 643.802 848.179 644.635 848.412 645.529 848.378 646.383 848.524 646.884 848.61 647.367 848.758 647.861 848.872 649.364 849.581 650.351 850.116 651.917 850.609 652.4 850.76 652.898 850.856 653.394 850.954 654.62 851.201 657.081 851.65 657.081 851.65 661.052 853.517 657.515 851.975 661.509 853.385 662.75 853.821 663.913 854.47 665.199 854.774 667.401 855.291 666.175 855.042 668.889 855.467 669.38 855.699 669.917 855.862 670.364 856.161 670.79 856.446 671.018 856.961 671.47 857.202 671.911 857.441 672.462 857.41 672.947 857.55 674.061 857.872 675.16 858.243 676.266 858.591 678.042 860.261 675.599 858.145 678.85 859.981 679.525 860.362 680.039 860.957 680.693 861.37 681.15 861.655 681.688 861.811 682.168 862.063 687.502 864.849 680.652 861.539 685.858 863.798 686.858 864.231 687.725 865.018 688.811 865.187 695.759 866.278 684.864 864.608 694.344 865.88 694.965 865.966 695.565 866.166 696.188 866.228 697.904 866.4 699.631 866.459 701.353 866.576 706.697 868.251 700.003 866.303 706.518 867.617 707.279 867.771 707.993 868.08 708.73 868.311 709.223 868.659 709.621 869.181 710.208 869.352 711.636 869.773 713.173 869.742 714.635 870.048 715.393 870.206 716.11 870.51 716.847 870.741 718.839 873.239 717.084 871.679 721.643 872.824 722.282 872.985 722.859 873.322 723.487 873.517 723.97 873.67 724.469 873.761 724.965 873.865 726.51 874.19 727.419 874.309 729.021 874.558 729.389 874.675 729.769 874.771 730.13 874.906 731.612 875.465 732.989 876.348 734.554 876.644 736.897 877.082 735.793 876.846 737.876 877.337 738.491 877.685 739.078 878.077 739.719 878.378 740.067 878.542 740.511 878.513 740.828 878.726 744.372 881.107 739.945 879.375 744.515 880.809 745.009 881.154 745.442 881.59 745.993 881.85 746.543 882.107 749.402 882.499 749.68 882.543 752.991 885.659 749.06 882.375 753.37 884.626 753.827 884.865 754.063 885.369 754.476 885.667 755.299 886.262 759.587 889.245 761.119 889.487L763.331 889.832C764.518 893.185 762.44 888.137 765.175 891.569 767.912 895 763.928 892.717 767.39 894.345 768.223 895.524 767.813 895.093 768.496 895.735" stroke="#41719C" stroke-width="1.29835" stroke-linecap="butt" stroke-linejoin="miter" stroke-miterlimit="8" stroke-dasharray="5.19342 3.89506" stroke-opacity="1" fill="none" fill-rule="evenodd" transform="matrix(1.00124 0 0 1 -149.488 -558.317)"/></g></g></g></svg>