<svg xmlns="http://www.w3.org/2000/svg" width="117" height="16" viewBox="0 0 117 16" fill="none">
  <path d="M7.68 15.24C6.29333 15.24 5.06667 14.9333 4 14.32C2.94667 13.6933 2.11333 12.84 1.5 11.76C0.9 10.6667 0.6 9.41333 0.6 8C0.6 6.58667 0.9 5.34 1.5 4.26C2.11333 3.16667 2.94667 2.31333 4 1.7C5.06667 1.07333 6.29333 0.76 7.68 0.76C8.69333 0.76 9.62 0.939999 10.46 1.3C11.3133 1.64667 12.0467 2.14 12.66 2.78C13.2867 3.42 13.7667 4.16 14.1 5L11.08 6.02C10.88 5.55333 10.6067 5.14667 10.26 4.8C9.92667 4.45333 9.54 4.18667 9.1 4C8.67333 3.81333 8.2 3.72 7.68 3.72C6.94667 3.72 6.29333 3.9 5.72 4.26C5.14667 4.62 4.7 5.12667 4.38 5.78C4.06 6.42 3.9 7.16 3.9 8C3.9 8.84 4.06 9.58667 4.38 10.24C4.71333 10.88 5.16667 11.3867 5.74 11.76C6.32667 12.12 6.99333 12.3 7.74 12.3C8.28667 12.3 8.77333 12.2 9.2 12C9.62667 11.8 9.99333 11.52 10.3 11.16C10.62 10.8 10.8933 10.3867 11.12 9.92L14.14 10.94C13.82 11.7933 13.3467 12.5467 12.72 13.2C12.0933 13.84 11.3533 14.34 10.5 14.7C9.64667 15.06 8.70667 15.24 7.68 15.24ZM15.8113 15V0.999999H19.0313V15H15.8113ZM26.4688 15.24C25.7888 15.24 25.1354 15.1533 24.5088 14.98C23.8954 14.7933 23.3354 14.5467 22.8288 14.24C22.3354 13.92 21.9288 13.5667 21.6088 13.18C21.2888 12.78 21.0888 12.3533 21.0088 11.9L24.1888 11C24.3354 11.3867 24.5888 11.7267 24.9488 12.02C25.3221 12.3 25.7888 12.4467 26.3488 12.46C26.8954 12.4733 27.3488 12.3467 27.7088 12.08C28.0821 11.8133 28.2688 11.4667 28.2688 11.04C28.2688 10.7067 28.1354 10.4133 27.8688 10.16C27.6154 9.90667 27.2488 9.71333 26.7688 9.58L24.7888 9.08C24.0954 8.90667 23.4888 8.63333 22.9688 8.26C22.4621 7.88667 22.0621 7.43333 21.7688 6.9C21.4888 6.35333 21.3488 5.73333 21.3488 5.04C21.3488 3.69333 21.7954 2.64667 22.6888 1.9C23.5821 1.14 24.8421 0.76 26.4688 0.76C27.3621 0.76 28.1421 0.886666 28.8088 1.14C29.4754 1.38 30.0421 1.74 30.5088 2.22C30.9888 2.7 31.3688 3.3 31.6488 4.02L28.4888 4.96C28.3821 4.6 28.1488 4.27333 27.7888 3.98C27.4421 3.68667 26.9888 3.54 26.4288 3.54C25.8688 3.54 25.4288 3.66667 25.1088 3.92C24.8021 4.17333 24.6488 4.54 24.6488 5.02C24.6488 5.35333 24.7754 5.63333 25.0288 5.86C25.2821 6.07333 25.6288 6.23333 26.0688 6.34L28.0488 6.84C29.1821 7.12 30.0621 7.64667 30.6888 8.42C31.3288 9.18 31.6488 10.0467 31.6488 11.02C31.6488 11.9 31.4421 12.6533 31.0288 13.28C30.6288 13.9067 30.0421 14.3933 29.2688 14.74C28.4954 15.0733 27.5621 15.24 26.4688 15.24ZM38.247 15V0.999999H47.367V3.96H41.467V6.52H46.407V9.38H41.467V12.04H47.467V15H38.247ZM49.9053 15V0.999999H53.2853L59.4253 9.54V0.999999H62.6453V15H59.4253L53.1253 6.22V15H49.9053ZM65.2941 15V0.999999H74.4141V3.96H68.5141V6.52H73.4541V9.38H68.5141V12.04H74.5141V15H65.2941ZM76.9523 15V0.999999H82.4523C83.4657 0.999999 84.3657 1.2 85.1523 1.6C85.939 1.98667 86.5523 2.53333 86.9923 3.24C87.4457 3.93333 87.6723 4.73333 87.6723 5.64C87.6723 6.54667 87.4457 7.35333 86.9923 8.06C86.539 8.76667 85.9123 9.32 85.1123 9.72C84.3257 10.1067 83.419 10.3 82.3923 10.3H80.1723V15H76.9523ZM84.5523 15L81.3923 9.44L83.8123 7.66L88.2323 15H84.5523ZM80.1723 7.34H82.3523C82.7257 7.34 83.059 7.26667 83.3523 7.12C83.6457 6.97333 83.8723 6.77333 84.0323 6.52C84.2057 6.25333 84.2923 5.96 84.2923 5.64C84.2923 5.14667 84.1057 4.74 83.7323 4.42C83.3723 4.1 82.8923 3.94 82.2923 3.94H80.1723V7.34ZM96.5383 15.24C95.0983 15.24 93.8249 14.9333 92.7183 14.32C91.6249 13.6933 90.7649 12.84 90.1383 11.76C89.5116 10.6667 89.1983 9.41333 89.1983 8C89.1983 6.58667 89.5116 5.34 90.1383 4.26C90.7649 3.16667 91.6249 2.31333 92.7183 1.7C93.8249 1.07333 95.0983 0.76 96.5383 0.76C97.4316 0.76 98.2383 0.893333 98.9583 1.16C99.6916 1.41333 100.332 1.76667 100.878 2.22C101.425 2.67333 101.878 3.19333 102.238 3.78L99.5783 5.38C99.3783 5.06 99.1116 4.77333 98.7783 4.52C98.4583 4.26667 98.1049 4.07333 97.7183 3.94C97.3316 3.79333 96.9383 3.72 96.5383 3.72C95.7516 3.72 95.0516 3.9 94.4383 4.26C93.8383 4.62 93.3649 5.12667 93.0183 5.78C92.6716 6.42 92.4983 7.16 92.4983 8C92.4983 8.84 92.6649 9.58667 92.9983 10.24C93.3316 10.88 93.8116 11.3867 94.4383 11.76C95.0649 12.1333 95.7916 12.32 96.6183 12.32C97.2449 12.32 97.7983 12.2 98.2783 11.96C98.7583 11.72 99.1383 11.3867 99.4183 10.96C99.6983 10.5333 99.8383 10.0333 99.8383 9.46L102.898 8.94C102.898 10.3 102.625 11.4533 102.078 12.4C101.532 13.3333 100.785 14.04 99.8383 14.52C98.8916 15 97.7916 15.24 96.5383 15.24ZM96.6383 9.8V7.32H102.898V9.22L101.098 9.8H96.6383ZM111.385 9.24L108.285 8.6L112.765 0.999999H116.425L111.385 9.24ZM108.285 15В8.28H111.505V15H108.285ZM108.385 9.24L103.345 0.999999H107.005L111.485 8.6L108.385 9.24Z" fill="#0097DC"></path>
</svg>
