<svg width="17" height="16" viewBox="0 0 17 16" fill="none" xmlns="http://www.w3.org/2000/svg">
<path d="M0.830078 8C0.830078 10.1217 1.67293 12.1566 3.17322 13.6569C4.67351 15.1571 6.70835 16 8.83008 16C10.9518 16 12.9866 15.1571 14.4869 13.6569C15.9872 12.1566 16.8301 10.1217 16.8301 8C16.8301 5.87827 15.9872 3.84344 14.4869 2.34315C12.9866 0.842855 10.9518 0 8.83008 0C6.70835 0 4.67351 0.842855 3.17322 2.34315C1.67293 3.84344 0.830078 5.87827 0.830078 8ZM8.36133 11.7812C8.06758 12.075 7.59258 12.075 7.30195 11.7812C7.01133 11.4875 7.0082 11.0125 7.30195 10.7219L10.0207 8.00313L7.30195 5.28438C7.0082 4.99063 7.0082 4.51562 7.30195 4.225C7.5957 3.93437 8.0707 3.93125 8.36133 4.225L11.6113 7.46875C11.9051 7.7625 11.9051 8.2375 11.6113 8.52812L8.36133 11.7812Z" fill="#0097DC"/>
</svg>
