<svg width="48" height="49" viewBox="0 0 48 49" fill="none" xmlns="http://www.w3.org/2000/svg">
<g clip-path="url(#clip0_212_481)">
<g clip-path="url(#clip1_212_481)">
<g clip-path="url(#clip2_212_481)">
<path d="M24 48.9795C37.2548 48.9795 48 38.2343 48 24.9795C48 11.7247 37.2548 0.979492 24 0.979492C10.7452 0.979492 0 11.7247 0 24.9795C0 38.2343 10.7452 48.9795 24 48.9795Z" fill="#1A365A"/>
<path fill-rule="evenodd" clip-rule="evenodd" d="M34.2857 33.113C34.2857 33.6704 33.8339 34.1226 33.2766 34.1226H28.6168V27.0414H30.9938L31.3499 24.2819H28.6168V22.5198C28.6168 21.7208 28.839 21.1763 29.9847 21.1763L31.4461 21.1759V18.7074C31.193 18.6741 30.3258 18.5987 29.3167 18.5987C27.2097 18.5987 25.7672 19.8848 25.7672 22.2467V24.2819H23.3843V27.0414H25.7672V34.1226H17.0091C16.4518 34.1226 16 33.6704 16 33.113V16.8465C16 16.2887 16.4518 15.8369 17.0091 15.8369H33.2766C33.8339 15.8369 34.2857 16.2887 34.2857 16.8465V33.113Z" fill="white" fill-opacity="0.7"/>
</g>
</g>
</g>
<defs>
<clipPath id="clip0_212_481">
<rect width="48" height="48" fill="white" transform="translate(0 0.979492)"/>
</clipPath>
<clipPath id="clip1_212_481">
<rect width="48" height="48" fill="white" transform="translate(0 0.979492)"/>
</clipPath>
<clipPath id="clip2_212_481">
<rect width="48" height="48" fill="white" transform="translate(0 0.979492)"/>
</clipPath>
</defs>
</svg>
