<svg width="48" height="49" viewBox="0 0 48 49" fill="none" xmlns="http://www.w3.org/2000/svg">
<g clip-path="url(#clip0_212_510)">
<g clip-path="url(#clip1_212_510)">
<g clip-path="url(#clip2_212_510)">
<path d="M24 48.9795C37.2548 48.9795 48 38.2343 48 24.9795C48 11.7247 37.2548 0.979492 24 0.979492C10.7452 0.979492 0 11.7247 0 24.9795C0 38.2343 10.7452 48.9795 24 48.9795Z" fill="#1A365A"/>
<path d="M24.0003 17.4843C26.4415 17.4843 26.7307 17.4936 27.6948 17.5376C28.5861 17.5783 29.0702 17.7272 29.3925 17.8523C29.8193 18.0183 30.1238 18.2165 30.4437 18.5363C30.7636 18.8562 30.9618 19.1608 31.1276 19.5875C31.2529 19.9098 31.4018 20.3939 31.4425 21.2853C31.4865 22.2494 31.4957 22.5385 31.4957 24.9798C31.4957 27.421 31.4865 27.7102 31.4425 28.6743C31.4018 29.5657 31.2529 30.0498 31.1276 30.372C30.9618 30.7987 30.7636 31.1033 30.4437 31.4232C30.1238 31.7432 29.8193 31.9414 29.3925 32.1072C29.0702 32.2323 28.5861 32.3813 27.6948 32.4219C26.7308 32.4659 26.4417 32.4753 24.0003 32.4753C21.5589 32.4753 21.2698 32.4659 20.3058 32.4219C19.4143 32.3813 18.9302 32.2323 18.608 32.1072C18.1813 31.9414 17.8767 31.7432 17.5569 31.4232C17.2369 31.1033 17.0387 30.7987 16.8729 30.372C16.7477 30.0498 16.5988 29.5657 16.5581 28.6743C16.5141 27.7102 16.5047 27.421 16.5047 24.9798C16.5047 22.5385 16.5141 22.2494 16.5581 21.2853C16.5988 20.3939 16.7477 19.9098 16.8729 19.5875C17.0387 19.1608 17.2369 18.8562 17.5569 18.5363C17.8767 18.2165 18.1813 18.0183 18.608 17.8523C18.9302 17.7272 19.4143 17.5783 20.3058 17.5376C21.2699 17.4936 21.559 17.4843 24.0003 17.4843ZM24.0003 15.8369C21.5172 15.8369 21.2059 15.8474 20.2307 15.8919C19.2575 15.9363 18.593 16.0909 18.0114 16.3169C17.4101 16.5506 16.9003 16.8632 16.3919 17.3714C15.8837 17.8798 15.571 18.3896 15.3374 18.9909C15.1114 19.5725 14.9569 20.237 14.9124 21.2102C14.8679 22.1854 14.8574 22.4967 14.8574 24.9798C14.8574 27.4629 14.8679 27.7742 14.9124 28.7494C14.9569 29.7225 15.1114 30.3871 15.3374 30.9687C15.571 31.5699 15.8837 32.0798 16.3919 32.5881C16.9003 33.0963 17.4101 33.409 18.0114 33.6426C18.593 33.8687 19.2575 34.0232 20.2307 34.0677C21.2059 34.1121 21.5172 34.1226 24.0003 34.1226C26.4834 34.1226 26.7947 34.1121 27.7699 34.0677C28.743 34.0232 29.4076 33.8687 29.9892 33.6426C30.5905 33.409 31.1003 33.0963 31.6086 32.5881C32.1169 32.0798 32.4294 31.5699 32.6631 30.9687C32.8892 30.3871 33.0437 29.7225 33.0882 28.7494C33.1326 27.7742 33.1431 27.4629 33.1431 24.9798C33.1431 22.4967 33.1326 22.1854 33.0882 21.2102C33.0437 20.237 32.8892 19.5725 32.6631 18.9909C32.4294 18.3896 32.1169 17.8798 31.6086 17.3714C31.1003 16.8632 30.5905 16.5506 29.9892 16.3169C29.4076 16.0909 28.743 15.9363 27.7699 15.8919C26.7947 15.8474 26.4834 15.8369 24.0003 15.8369ZM24.0003 20.2848C21.4073 20.2848 19.3053 22.3869 19.3053 24.9798C19.3053 27.5728 21.4073 29.6747 24.0003 29.6747C26.5932 29.6747 28.6953 27.5728 28.6953 24.9798C28.6953 22.3869 26.5932 20.2848 24.0003 20.2848ZM24.0003 28.0274C22.3171 28.0274 20.9526 26.663 20.9526 24.9798C20.9526 23.2967 22.3171 21.9321 24.0003 21.9321C25.6834 21.9321 27.0479 23.2967 27.0479 24.9798C27.0479 26.663 25.6834 28.0274 24.0003 28.0274ZM29.9779 20.0993C29.9779 20.7053 29.4867 21.1965 28.8807 21.1965C28.2748 21.1965 27.7836 20.7053 27.7836 20.0993C27.7836 19.4934 28.2748 19.0022 28.8807 19.0022C29.4867 19.0022 29.9779 19.4934 29.9779 20.0993Z" fill="white" fill-opacity="0.7"/>
</g>
</g>
</g>
<defs>
<clipPath id="clip0_212_510">
<rect width="48" height="48" fill="white" transform="translate(0 0.979492)"/>
</clipPath>
<clipPath id="clip1_212_510">
<rect width="48" height="48" fill="white" transform="translate(0 0.979492)"/>
</clipPath>
<clipPath id="clip2_212_510">
<rect width="48" height="48" fill="white" transform="translate(0 0.979492)"/>
</clipPath>
</defs>
</svg>
