<svg width="24" height="18" viewBox="0 0 24 18" fill="none" xmlns="http://www.w3.org/2000/svg">
<path d="M0 3C0 1.34315 1.34315 0 3 0H21C22.6569 0 24 1.34315 24 3V15C24 16.6569 22.6569 18 21 18H3C1.34315 18 0 16.6569 0 15V3Z" fill="#00ABC2"/>
<path d="M12.4539 9.9502C13.6197 9.9502 14.5648 8.88458 14.5648 7.57007C14.5648 6.25556 13.6197 5.18994 12.4539 5.18994C11.2881 5.18994 10.343 6.25556 10.343 7.57007C10.343 8.88458 11.2881 9.9502 12.4539 9.9502Z" fill="#FFEC2D"/>
<path d="M12.454 4.86645C12.5795 4.86468 12.6265 4.77626 12.6265 4.67017C12.6265 4.5287 12.454 3.85498 12.454 3.85498C12.454 3.85498 12.2815 4.5287 12.2815 4.67017C12.2815 4.77626 12.3286 4.86645 12.454 4.86645Z" fill="#FFEC2D"/>
<path d="M14.8518 7.57C14.8534 7.71147 14.9318 7.76451 15.0259 7.76451C15.1513 7.76451 15.7488 7.57 15.7488 7.57C15.7488 7.57 15.1513 7.37549 15.0259 7.37549C14.9318 7.37549 14.8518 7.42854 14.8518 7.57Z" fill="#FFEC2D"/>
<path d="M12.454 10.2737C12.3285 10.2755 12.2815 10.3639 12.2815 10.47C12.2815 10.6114 12.454 11.2852 12.454 11.2852C12.454 11.2852 12.6265 10.6114 12.6265 10.47C12.6265 10.3639 12.5794 10.2737 12.454 10.2737Z" fill="#FFEC2D"/>
<path d="M10.0562 7.57014C10.0546 7.42867 9.97622 7.37562 9.88212 7.37562C9.75666 7.37562 9.15915 7.57014 9.15915 7.57014C9.15915 7.57014 9.75666 7.76465 9.88212 7.76465C9.97622 7.76465 10.0562 7.7116 10.0562 7.57014Z" fill="#FFEC2D"/>
<path d="M13.3646 5.07742C13.4761 5.12606 13.5488 5.06232 13.5863 4.96319C13.6363 4.83102 13.7219 4.1324 13.7219 4.1324C13.7219 4.1324 13.3315 4.69269 13.2815 4.82486C13.2441 4.92399 13.2538 5.02711 13.3646 5.07742Z" fill="#FFEC2D"/>
<path d="M14.6743 8.61247C14.6241 8.74956 14.6763 8.83318 14.7622 8.87213C14.8767 8.92405 15.4931 8.98375 15.4931 8.98375C15.4931 8.98375 15.0187 8.54884 14.9042 8.49692C14.8183 8.45797 14.7259 8.47603 14.6743 8.61247Z" fill="#FFEC2D"/>
<path d="M11.5434 10.0627C11.4319 10.0141 11.3591 10.0778 11.3217 10.1769C11.2717 10.3091 11.1861 11.0077 11.1861 11.0077C11.1861 11.0077 11.5765 10.4474 11.6265 10.3153C11.6639 10.2161 11.6542 10.113 11.5434 10.0627Z" fill="#FFEC2D"/>
<path d="M10.2337 6.52766C10.2839 6.39057 10.2317 6.30696 10.1458 6.26801C10.0313 6.21608 9.41492 6.15639 9.41492 6.15639C9.41492 6.15639 9.88934 6.59129 10.0039 6.64322C10.0897 6.68217 10.1821 6.6641 10.2337 6.52766Z" fill="#FFEC2D"/>
<path d="M14.1497 5.65818C14.2395 5.75696 14.3282 5.73195 14.3947 5.65693C14.4834 5.5569 14.784 4.94296 14.784 4.94296C14.784 4.94296 14.2395 5.28181 14.1508 5.38184C14.0842 5.45687 14.0609 5.55815 14.1497 5.65818Z" fill="#FFEC2D"/>
<path d="M14.1496 9.48214C14.062 9.58342 14.0842 9.68345 14.1507 9.75847C14.2394 9.8585 14.7839 10.1974 14.7839 10.1974C14.7839 10.1974 14.4834 9.58342 14.3947 9.48339C14.3282 9.40837 14.2383 9.38211 14.1496 9.48214Z" fill="#FFEC2D"/>
<path d="M10.7588 9.48196C10.6689 9.38318 10.5802 9.40819 10.5137 9.48321C10.425 9.58324 10.1244 10.1972 10.1244 10.1972C10.1244 10.1972 10.6689 9.85832 10.7576 9.75829C10.8242 9.68327 10.8475 9.58199 10.7588 9.48196Z" fill="#FFEC2D"/>
<path d="M10.7588 5.658C10.8464 5.55672 10.8242 5.45669 10.7577 5.38166C10.669 5.28163 10.1245 4.94278 10.1245 4.94278C10.1245 4.94278 10.425 5.55672 10.5137 5.65675C10.5803 5.73177 10.6701 5.75803 10.7588 5.658Z" fill="#FFEC2D"/>
<path d="M14.6744 6.52739C14.7275 6.66318 14.8184 6.68189 14.9043 6.64294C15.0188 6.59102 15.4932 6.15611 15.4932 6.15611C15.4932 6.15611 14.8768 6.21581 14.7623 6.26773C14.6764 6.30668 14.6228 6.39095 14.6744 6.52739Z" fill="#FFEC2D"/>
<path d="M13.3647 10.0624C13.2545 10.1143 13.2442 10.2158 13.2817 10.3149C13.3316 10.4471 13.722 11.0074 13.722 11.0074C13.722 11.0074 13.6364 10.3088 13.5865 10.1766C13.549 10.0775 13.4756 10.0121 13.3647 10.0624Z" fill="#FFEC2D"/>
<path d="M10.2334 8.61226C10.1804 8.47647 10.0894 8.45776 10.0035 8.49671C9.88902 8.54863 9.41461 8.98354 9.41461 8.98354C9.41461 8.98354 10.031 8.92384 10.1455 8.87192C10.2314 8.83297 10.2851 8.7487 10.2334 8.61226Z" fill="#FFEC2D"/>
<path d="M11.5432 5.07727C11.6534 5.02532 11.6637 4.92385 11.6262 4.82472C11.5763 4.69255 11.1859 4.13225 11.1859 4.13225C11.1859 4.13225 11.2715 4.83088 11.3214 4.96305C11.3589 5.06218 11.4323 5.12757 11.5432 5.07727Z" fill="#FFEC2D"/>
<path d="M12.9132 4.92475C13.0288 4.94645 13.0893 4.86752 13.11 4.76225C13.1375 4.62189 13.1102 3.92117 13.1102 3.92117C13.1102 3.92117 12.8204 4.55739 12.7929 4.69775C12.7722 4.80302 12.7979 4.9013 12.9132 4.92475Z" fill="#FFEC2D"/>
<path d="M14.8115 8.1112C14.784 8.25846 14.849 8.32891 14.94 8.34733C15.0613 8.37188 15.679 8.28677 15.679 8.28677C15.679 8.28677 15.1411 7.96777 15.0197 7.94322C14.9287 7.9248 14.8405 7.96426 14.8115 8.1112Z" fill="#FFEC2D"/>
<path d="M11.995 10.2156C11.8794 10.1939 11.8189 10.2729 11.7982 10.3781C11.7707 10.5185 11.798 11.2192 11.798 11.2192C11.798 11.2192 12.0878 10.583 12.1153 10.4426C12.136 10.3374 12.1103 10.2391 11.995 10.2156Z" fill="#FFEC2D"/>
<path d="M10.0968 7.02918C10.1242 6.88192 10.0593 6.81147 9.96827 6.79305C9.84694 6.7685 9.22923 6.85361 9.22923 6.85361C9.22923 6.85361 9.76721 7.17261 9.88854 7.19716C9.97954 7.21558 10.0678 7.17613 10.0968 7.02918Z" fill="#FFEC2D"/>
<path d="M13.7806 5.33064C13.8803 5.40299 13.9623 5.35604 14.0162 5.26647C14.0881 5.14705 14.2946 4.47677 14.2946 4.47677C14.2946 4.47677 13.8164 4.94399 13.7445 5.06341C13.6906 5.15298 13.6818 5.2568 13.7806 5.33064Z" fill="#FFEC2D"/>
<path d="M14.4535 9.08267C14.3802 9.20717 14.4163 9.30124 14.4931 9.35854C14.5956 9.43493 15.1859 9.62886 15.1859 9.62886C15.1859 9.62886 14.8005 9.09517 14.6981 9.01878C14.6213 8.96149 14.528 8.95912 14.4535 9.08267Z" fill="#FFEC2D"/>
<path d="M11.1277 9.81072C11.028 9.73837 10.9461 9.78532 10.8921 9.87488C10.8203 9.99431 10.6137 10.6646 10.6137 10.6646C10.6137 10.6646 11.092 10.1974 11.1638 10.0779C11.2178 9.98838 11.2265 9.88456 11.1277 9.81072Z" fill="#FFEC2D"/>
<path d="M10.4553 6.05796C10.5286 5.93346 10.4925 5.83938 10.4157 5.78209C10.3133 5.7057 9.72294 5.51176 9.72294 5.51176C9.72294 5.51176 10.1083 6.04545 10.2107 6.12184C10.2875 6.17914 10.3808 6.1815 10.4553 6.05796Z" fill="#FFEC2D"/>
<path d="M14.4487 6.0705C14.5193 6.18717 14.6106 6.18222 14.689 6.12334C14.7935 6.04484 15.1959 5.50918 15.1959 5.50918C15.1959 5.50918 14.603 5.7213 14.4985 5.7998C14.4201 5.85868 14.3794 5.95285 14.4487 6.0705Z" fill="#FFEC2D"/>
<path d="M13.785 9.81979C13.6811 9.89979 13.6852 10.0028 13.7373 10.091C13.8068 10.2087 14.2816 10.6612 14.2816 10.6612C14.2816 10.6612 14.0949 9.99278 14.0255 9.8751C13.9734 9.78684 13.8898 9.74127 13.785 9.81979Z" fill="#FFEC2D"/>
<path d="M10.4597 9.07037C10.3891 8.9537 10.2978 8.95865 10.2194 9.01753C10.1149 9.09603 9.71243 9.63169 9.71243 9.63169C9.71243 9.63169 10.3054 9.41957 10.4099 9.34107C10.4883 9.28219 10.5289 9.18802 10.4597 9.07037Z" fill="#FFEC2D"/>
<path d="M11.1233 5.32083C11.2272 5.24084 11.2231 5.13784 11.171 5.04958C11.1015 4.9319 10.6266 4.47943 10.6266 4.47943C10.6266 4.47943 10.8134 5.14785 10.8828 5.26552C10.9349 5.35378 11.0185 5.39936 11.1233 5.32083Z" fill="#FFEC2D"/>
<path d="M14.8064 7.04345C14.8322 7.18282 14.9183 7.21826 15.0106 7.19792C15.1337 7.17081 15.6866 6.84957 15.6866 6.84957C15.6866 6.84957 15.0669 6.78662 14.9438 6.81373C14.8515 6.83407 14.7821 6.90375 14.8064 7.04345Z" fill="#FFEC2D"/>
<path d="M12.9201 10.2217C12.7972 10.2504 12.7662 10.3474 12.7844 10.4516C12.8087 10.5906 13.094 11.2153 13.094 11.2153C13.094 11.2153 13.1476 10.5164 13.1232 10.3774C13.105 10.2732 13.0433 10.1947 12.9201 10.2217Z" fill="#FFEC2D"/>
<path d="M10.1018 8.09693C10.076 7.95756 9.98995 7.92212 9.89763 7.94246C9.77452 7.96957 9.22166 8.29082 9.22166 8.29082C9.22166 8.29082 9.84133 8.35376 9.96443 8.32665C10.0568 8.30631 10.1261 8.23663 10.1018 8.09693Z" fill="#FFEC2D"/>
<path d="M11.9882 4.91866C12.1111 4.88995 12.1421 4.79298 12.1239 4.68876C12.0996 4.5498 11.8143 3.92507 11.8143 3.92507C11.8143 3.92507 11.7607 4.62397 11.785 4.76294C11.8033 4.86716 11.865 4.94563 11.9882 4.91866Z" fill="#FFEC2D"/>
<path d="M12.3815 11.7262C12.3266 11.8376 12.2937 11.9667 12.2247 12.0674C12.0114 11.8499 11.704 11.8552 11.4343 11.8429C11.2116 11.8287 10.97 11.8057 10.7975 11.6271C10.6172 11.4591 10.4682 11.2434 10.2675 11.1073C10.0788 11.0615 9.90153 10.9691 9.74837 10.8367C9.43158 10.5449 9.24966 10.1117 8.93915 9.81109C8.88112 9.74744 8.81055 9.69615 8.74468 9.64134C8.68195 9.65902 8.71018 9.81109 8.63333 9.73329C8.59099 9.69792 8.48592 9.69616 8.47651 9.7439C8.5706 9.88536 8.66627 10.0445 8.68038 10.2249C8.61451 10.2319 8.50003 10.209 8.46867 10.2355C8.55485 10.3813 8.66315 10.5088 8.78859 10.6121C8.729 10.6227 8.61138 10.6174 8.58785 10.644C8.70527 10.7707 8.85023 10.8604 9.00815 10.9039C9.03952 10.9534 8.95953 11.0489 9.02854 11.0913C9.06774 11.109 9.19948 11.1409 9.10852 11.1921C9.04579 11.2381 9.06931 11.3495 9.14929 11.346C9.19948 11.376 9.31239 11.3813 9.3218 11.4344C9.27632 11.4839 9.13832 11.544 9.25594 11.5935C9.36682 11.6644 9.4909 11.705 9.6182 11.712C9.55547 11.7721 9.47706 11.8057 9.41276 11.8623C9.70289 12.0551 10.0244 12.1806 10.3443 12.3044C10.4698 12.3504 10.5999 12.3946 10.7317 12.4229C10.349 12.3981 9.97891 12.2708 9.63075 12.0957C9.4504 12.0073 9.27005 11.9207 9.08499 11.8446C9.16498 11.7969 9.25907 11.7845 9.34376 11.7438C9.16811 11.7049 8.97835 11.6908 8.82623 11.5847C8.84819 11.5352 8.93601 11.5334 8.98619 11.5087C9.08029 11.4839 9.13675 11.4556 9.00658 11.445C8.87485 11.4043 8.72429 11.422 8.60667 11.3336C8.61451 11.2806 8.73684 11.2982 8.78546 11.2752C8.84819 11.2629 8.91719 11.2523 8.96737 11.2045C8.7635 11.1108 8.4969 11.178 8.33693 10.9746C8.30086 10.8968 8.45142 10.9587 8.49376 10.9463C8.60354 10.9463 8.72116 10.9852 8.82623 10.9357C8.52826 10.789 8.2099 10.6528 7.98407 10.3805C7.95898 10.3363 7.8837 10.216 7.94487 10.2019C8.12051 10.2284 8.24754 10.4441 8.4373 10.4105C8.46239 10.3734 8.32752 10.3115 8.29302 10.2567C8.00933 9.99968 7.76186 9.69561 7.55907 9.35487C7.54653 9.2364 7.70806 9.21871 7.7504 9.3089C7.96055 9.53878 8.15031 9.80402 8.41221 9.95963C8.50631 10.0109 8.35889 9.89951 8.34007 9.85884C8.09098 9.54748 7.87565 9.20377 7.69865 8.83499C7.66728 8.7678 7.61867 8.64579 7.70963 8.61042C7.79902 8.55914 7.88998 8.6281 7.93546 8.71652C8.11267 8.96938 8.2444 9.27 8.46553 9.48042C8.27734 9.06841 8.07503 8.63164 8.07033 8.15774C8.07503 8.06578 8.07974 7.92786 8.19108 7.92962C8.28518 7.91371 8.2695 8.0481 8.30086 8.11176C8.39182 8.46188 8.43103 8.8403 8.61451 9.14798C8.57531 8.88981 8.51415 8.6228 8.55492 8.35932C8.56433 8.27091 8.64902 8.24615 8.70704 8.2992C8.75252 8.42298 8.76193 8.58036 8.80271 8.71475C9.04712 9.63013 9.56174 10.4238 10.2612 10.964C10.8339 11.4059 11.5022 11.6644 12.1949 11.712C12.2576 11.7191 12.3203 11.7209 12.3815 11.7244M14.5206 13.3353C14.4077 13.4131 14.3199 13.2752 14.2258 13.2345C14.1568 13.277 14.1505 13.4149 14.0878 13.4821C14.0125 13.5793 13.9184 13.4538 13.9262 13.3583C13.8353 13.4449 13.7898 13.6412 13.6439 13.6129C13.5734 13.5493 13.5216 13.4149 13.4683 13.5687C13.426 13.643 13.3115 13.7491 13.2503 13.6359C13.2315 13.5369 13.1876 13.4202 13.1405 13.5776C13.106 13.6907 12.9994 13.7721 12.899 13.7226C12.8426 13.6713 12.9429 13.4803 12.8724 13.4927C12.7657 13.574 12.703 13.7703 12.554 13.7544C12.496 13.6837 12.5901 13.5581 12.5258 13.4768C12.4521 13.5846 12.3689 13.7438 12.2388 13.7544C12.176 13.6978 12.2419 13.5334 12.2011 13.5104C12.0694 13.5988 11.9283 13.7597 11.762 13.7102C11.8263 13.4273 12.0992 13.33 12.3266 13.3088C12.7202 13.254 13.1343 13.3548 13.5138 13.1938C13.5749 13.1514 13.7224 13.0931 13.6706 12.9958C13.6236 12.918 13.7914 12.9481 13.807 12.8579C13.7976 12.7447 13.8855 12.7606 13.9701 12.7518C14.3528 12.7323 14.7307 12.8225 15.1118 12.8384C15.1401 13.0471 14.9346 13.1939 14.7668 13.1302C14.6884 13.1443 14.5708 12.9251 14.5943 13.0842C14.5786 13.1691 14.588 13.2787 14.5206 13.3353ZM11.268 12.9074C11.3558 12.9976 11.4186 12.8897 11.5017 12.849C11.7731 12.7292 12.0281 12.5667 12.2592 12.3663C12.4034 12.2319 12.5289 12.0568 12.7234 12.0126C13.1029 11.8835 13.5059 11.8995 13.8855 11.7792C14.1756 11.3336 14.6665 11.1727 15.0789 10.9163C15.1714 10.8845 15.2075 10.7978 15.2357 10.7041C15.3926 10.4229 15.6074 10.1754 15.8615 10.0056C15.9814 9.92575 16.1227 9.8969 16.2598 9.92427C16.2409 10.1047 16.1646 10.2712 16.045 10.3929C16.1375 10.3911 16.2175 10.3257 16.3084 10.3292C16.3398 10.5166 16.161 10.6139 16.0653 10.7306C16.1187 10.7448 16.3225 10.7624 16.2112 10.8226C16.07 10.9322 15.9085 11.0082 15.7783 11.1373C15.8991 11.1621 15.9132 11.1904 15.7909 11.2399C15.7235 11.2894 15.5964 11.3071 15.5839 11.4061C15.6748 11.4698 15.5431 11.5299 15.4914 11.5511C15.3941 11.5776 15.2906 11.6254 15.4208 11.7102C15.3722 11.7934 15.2655 11.811 15.1793 11.8022C15.2059 11.8977 15.2436 12.0038 15.1354 12.0462C14.8926 12.2626 14.6019 12.3996 14.2948 12.4423C14.679 12.4742 15.0758 12.3946 15.4035 12.1594C15.4474 12.101 15.6748 12.0374 15.5478 11.9896C15.4882 11.9613 15.3596 11.9295 15.3502 11.8782C15.529 11.7545 15.7533 11.7987 15.9446 11.7262C15.9493 11.6554 15.7987 11.6749 15.7423 11.659C15.609 11.6466 15.6168 11.6077 15.7454 11.5935C15.9085 11.544 16.0936 11.5352 16.2316 11.4167C16.1202 11.3566 15.9791 11.4079 15.8599 11.3601C16.0622 11.2611 16.3006 11.2505 16.4825 11.1002C16.5656 10.9959 16.3759 11.0295 16.321 11.0312C16.2096 11.0542 16.1579 10.9923 16.2849 10.941C16.5029 10.7589 16.7773 10.6422 16.931 10.3805C16.9671 10.3221 17.0157 10.1453 16.8997 10.2072C16.7491 10.2655 16.6158 10.4565 16.4417 10.3982C16.7836 10.0993 17.1067 9.76158 17.3403 9.34957C17.3529 9.22932 17.1867 9.21695 17.1443 9.31067C16.9248 9.54762 16.7271 9.82878 16.4464 9.97908C16.711 9.68077 16.9408 9.34563 17.1302 8.98176C17.1725 8.87566 17.2839 8.74658 17.2243 8.6281C17.1255 8.53615 17.0032 8.62103 16.953 8.7289C16.782 8.97999 16.6534 9.27176 16.4355 9.47689C16.6252 9.06487 16.8244 8.62457 16.8275 8.15066C16.8275 8.05164 16.8118 7.90664 16.6926 7.92609C16.5986 7.94377 16.6221 8.10292 16.5829 8.18249C16.4982 8.50786 16.4574 8.85975 16.2849 9.14268C16.3241 8.8792 16.3915 8.60335 16.3398 8.3381C16.3147 8.21786 16.1438 8.26914 16.1673 8.38761C15.9634 9.55292 15.2687 10.5715 14.3638 11.1603C13.9482 11.4256 13.4855 11.5953 13.0119 11.6731C12.8865 11.7032 12.7485 11.6855 12.6277 11.735C12.3329 11.9879 12.1557 12.414 11.784 12.5467C11.6162 12.6404 11.3998 12.6598 11.2806 12.8331C11.2709 12.8563 11.2666 12.8818 11.268 12.9074ZM12.0788 12.7253C12.0224 12.7288 11.9675 12.7359 11.9126 12.7553C11.8389 12.7677 11.7683 12.796 11.6962 12.8084L11.6664 12.8154L11.6177 12.8207C11.6241 12.8504 11.6241 12.8813 11.6177 12.9109C11.6127 12.9243 11.6052 12.9363 11.5958 12.9463C11.5864 12.9604 11.5754 12.971 11.5613 12.9781C11.5485 12.9852 11.5347 12.9894 11.5205 12.9905C11.5064 12.9905 11.4923 12.9905 11.4782 12.9834C11.4641 12.9781 11.4515 12.9693 11.439 12.9569L11.395 12.9657H11.3543L11.3104 12.9481C11.2962 12.9418 11.2825 12.9341 11.2696 12.9251C11.2163 12.9604 11.1567 12.994 11.1237 13.0559C11.1084 13.0842 11.0998 13.1165 11.0986 13.1496C11.0955 13.1921 11.1049 13.2345 11.1206 13.2734C11.1269 13.284 11.1316 13.2328 11.1488 13.2257C11.1786 13.1974 11.2163 13.1779 11.2539 13.1673C11.2853 13.1496 11.2806 13.1673 11.268 13.1956C11.2649 13.2115 11.2476 13.2663 11.2712 13.2381C11.3796 13.1924 11.4942 13.1679 11.6099 13.1656C11.7761 13.1461 11.9424 13.1408 12.1086 13.139L12.5791 13.1496C12.6544 13.1532 12.7296 13.1709 12.8033 13.1567C12.8206 13.1514 12.8488 13.1514 12.8598 13.139C12.8253 13.1178 12.7861 13.116 12.75 13.1107H12.4505C12.3674 13.1019 12.2811 13.1001 12.2027 13.0648C12.1807 13.0559 12.1619 13.0329 12.1415 13.0577C12.1117 13.0697 12.0806 13.0774 12.049 13.0807C11.9941 13.0842 11.9392 13.0718 11.8891 13.0488C11.9251 12.9923 11.969 12.9428 12.0098 12.8897L11.9126 12.8667C11.9706 12.8225 12.0224 12.7712 12.0788 12.7253Z" fill="#FFEC2D"/>
<path d="M11.5064 12.9338C11.5272 12.9338 11.5441 12.9148 11.5441 12.8913C11.5441 12.8679 11.5272 12.8489 11.5064 12.8489C11.4857 12.8489 11.4688 12.8679 11.4688 12.8913C11.4688 12.9148 11.4857 12.9338 11.5064 12.9338Z" fill="#FFEC2D"/>
<path d="M11.5033 12.9021C11.5119 12.9021 11.5189 12.8941 11.5189 12.8844C11.5189 12.8746 11.5119 12.8667 11.5033 12.8667C11.4946 12.8667 11.4876 12.8746 11.4876 12.8844C11.4876 12.8941 11.4946 12.9021 11.5033 12.9021Z" fill="#FFEC2D" stroke="#FFEC2D" stroke-width="0.0577644"/>
<path d="M2.02105 1.4345C2.02105 1.4345 1.8705 1.2895 1.81875 1.362C1.7372 1.47694 2.07281 2.05164 2.07281 2.25323C2.07281 2.58567 1.87521 2.67585 1.63369 2.72183C1.47059 2.75366 1.20556 2.70945 1.20556 2.70945C1.25574 2.63341 1.28867 2.61042 1.37179 2.60512C1.2777 2.55207 1.1836 2.43183 1.1836 2.24615C1.1836 1.96146 1.28711 1.84298 1.28711 1.52115C1.28711 1.34609 1.15851 1.11621 1.15851 1.11621C1.38747 1.14274 1.50039 1.38146 1.43609 1.57243C1.45374 1.57639 1.47198 1.5754 1.48921 1.56954C1.50644 1.56368 1.52213 1.55314 1.53489 1.53883C1.55057 1.59188 1.52548 1.65377 1.48941 1.70682C1.51764 1.72451 1.5396 1.7139 1.58351 1.70329C1.58037 1.75633 1.55214 1.81646 1.48 1.87127C1.68701 1.81115 1.81247 1.97207 1.81247 2.14182C1.81247 2.27091 1.73406 2.36286 1.65565 2.36286C1.63056 2.36286 1.59292 2.35048 1.57253 2.3328C1.55685 2.36817 1.56626 2.41591 1.58037 2.45128C1.52391 2.43359 1.48628 2.39469 1.51294 2.31512C1.46902 2.31158 1.43452 2.2939 1.411 2.26207C1.43452 2.2267 1.47059 2.20902 1.51294 2.20902C1.48157 2.13475 1.51764 2.09408 1.56939 2.06048C1.56939 2.06048 1.53646 2.20902 1.61958 2.20902C1.65722 2.20902 1.69172 2.19664 1.69172 2.13298C1.69172 2.07817 1.64938 2.00213 1.55057 2.00743C1.45334 2.01274 1.37336 2.08347 1.37336 2.2603C1.37336 2.42298 1.49098 2.50433 1.64467 2.50786C1.78268 2.51494 1.88775 2.43006 1.88775 2.26914C1.88775 2.05341 1.61331 1.56536 1.61331 1.37438C1.61331 1.23115 1.72622 1.14981 1.83914 1.14981C1.98342 1.14981 2.10574 1.31249 2.10574 1.31249L2.02105 1.43274V1.4345Z" fill="#FFEC2D"/>
<path d="M2.0524 5.30879C2.0524 5.66775 1.76698 5.85166 1.54272 5.85166C1.24161 5.85166 1.08008 5.6483 1.08008 5.38129C1.08008 5.23098 1.10517 5.1355 1.16633 4.99226L1.85951 3.37073C1.88462 3.30253 1.89535 3.22868 1.89087 3.155C1.89087 3.01 1.76541 2.89153 1.63524 2.88976C1.51606 2.88445 1.38432 3.01354 1.38432 3.16031C1.38432 3.33891 1.46744 3.41848 1.55213 3.41848C1.65563 3.41848 1.69641 3.37073 1.69641 3.28762C1.69641 3.23104 1.67288 3.20628 1.63681 3.20628C1.54742 3.20628 1.57408 3.34067 1.57408 3.34067C1.56228 3.33821 1.5511 3.33284 1.54135 3.32495C1.5316 3.31706 1.52351 3.30683 1.51767 3.29501C1.51183 3.28318 1.50838 3.27005 1.50755 3.25655C1.50673 3.24305 1.50856 3.22951 1.51292 3.21689C1.47935 3.20841 1.4491 3.18794 1.42666 3.15854C1.45019 3.13201 1.47842 3.11256 1.51292 3.10549C1.49253 3.02768 1.52076 2.99055 1.58035 2.97287C1.56963 2.99945 1.56688 3.02924 1.57251 3.05775C1.66661 3.02592 1.81246 3.07543 1.81246 3.25933C1.81246 3.44323 1.69954 3.59708 1.48783 3.55994C1.53801 3.58647 1.5631 3.64128 1.56938 3.70317C1.53017 3.68549 1.48783 3.68549 1.48783 3.68549C1.51292 3.73324 1.54742 3.77391 1.54585 3.87293C1.50665 3.85171 1.46901 3.81458 1.42039 3.83757C1.4988 4.0144 1.40157 4.25488 1.15379 4.31147C1.24475 4.19123 1.28866 4.06391 1.28866 3.93482C1.28866 3.51927 1.18672 3.45031 1.18672 3.16031C1.18833 3.09305 1.20411 3.02719 1.23274 2.96816C1.26137 2.90913 1.30204 2.85862 1.35139 2.82079V2.8261C1.32104 2.81907 1.29235 2.80488 1.26722 2.78446C1.24208 2.76404 1.22106 2.73786 1.20554 2.70762C1.38024 2.65333 1.56492 2.65517 1.73875 2.71293C1.79689 2.7222 1.85244 2.74609 1.9013 2.78281C1.95016 2.81954 1.99108 2.86818 2.02104 2.92512C2.05235 3.00568 2.06851 3.09269 2.06851 3.18064C2.06851 3.2686 2.05235 3.3556 2.02104 3.43616C1.92224 3.66604 1.46117 4.773 1.31689 5.11958C1.28552 5.19385 1.26827 5.27166 1.26827 5.35653C1.26827 5.56873 1.44078 5.643 1.53801 5.643C1.65563 5.643 1.77639 5.54221 1.77639 5.41666C1.77639 5.33708 1.73718 5.28757 1.68229 5.28757C1.54899 5.28757 1.55683 5.41489 1.58349 5.49623C1.50037 5.45379 1.45333 5.37952 1.46587 5.30172C1.41441 5.29197 1.36771 5.26188 1.33414 5.21684C1.3655 5.17086 1.40628 5.1355 1.46587 5.13373C1.43921 5.01172 1.51292 4.96043 1.58349 4.93214C1.56154 5.02056 1.54585 5.12489 1.68229 5.12489C1.78109 5.12489 1.85794 5.14257 1.90342 5.21684L1.91439 4.7394C1.92067 4.59617 1.74502 4.59793 1.63211 4.64214C1.67445 4.47769 1.76071 4.38751 1.96144 4.41049C1.93069 4.39716 1.90444 4.37324 1.88642 4.34213C1.86841 4.31103 1.85954 4.27431 1.86107 4.2372C1.86107 4.10281 1.95831 3.95427 2.02104 3.91007L2.0524 5.30702V5.30879Z" fill="#FFEC2D"/>
<path d="M2.0524 6.38384C2.0524 6.02487 1.76698 5.84097 1.54272 5.84097C1.24161 5.84097 1.08008 6.04432 1.08008 6.31134C1.08008 6.46164 1.10517 6.55713 1.16633 6.70036L1.85951 8.32189C1.88462 8.3901 1.89535 8.46395 1.89087 8.53762C1.89087 8.68263 1.76541 8.8011 1.63524 8.80287C1.51606 8.80817 1.38432 8.67909 1.38432 8.53232C1.38432 8.35372 1.46744 8.27415 1.55213 8.27415C1.65563 8.27415 1.69641 8.32189 1.69641 8.405C1.69641 8.46159 1.67288 8.48634 1.63681 8.48634C1.54742 8.48634 1.57408 8.35195 1.57408 8.35195C1.56228 8.35441 1.5511 8.35978 1.54135 8.36768C1.5316 8.37557 1.52351 8.38579 1.51767 8.39762C1.51183 8.40944 1.50838 8.42257 1.50755 8.43608C1.50673 8.44958 1.50856 8.46312 1.51292 8.47573C1.47935 8.48422 1.4491 8.50468 1.42666 8.53409C1.45019 8.56061 1.47842 8.58006 1.51292 8.58714C1.49253 8.66494 1.52076 8.70208 1.58035 8.71976C1.56963 8.69318 1.56688 8.66338 1.57251 8.63488C1.66661 8.66671 1.81246 8.6172 1.81246 8.4333C1.81246 8.24939 1.69954 8.09555 1.48783 8.13268C1.53801 8.10616 1.5631 8.05134 1.56938 7.98945C1.53017 8.00714 1.48783 8.00714 1.48783 8.00714C1.51292 7.95939 1.54742 7.91872 1.54585 7.8197C1.50665 7.84092 1.46901 7.87805 1.42039 7.85506C1.4988 7.67823 1.40157 7.43774 1.15379 7.38116C1.24475 7.5014 1.28866 7.62872 1.28866 7.75781C1.28866 8.17336 1.18672 8.24232 1.18672 8.53232C1.18833 8.59958 1.20411 8.66544 1.23274 8.72447C1.26137 8.7835 1.30204 8.83401 1.35139 8.87183V8.86653C1.32104 8.87356 1.29235 8.88775 1.26722 8.90816C1.24208 8.92858 1.22106 8.95477 1.20554 8.985C1.38024 9.0393 1.56492 9.03746 1.73875 8.9797C1.79689 8.97042 1.85244 8.94654 1.9013 8.90981C1.95016 8.87309 1.99108 8.82445 2.02104 8.7675C2.05235 8.68694 2.06851 8.59994 2.06851 8.51198C2.06851 8.42403 2.05235 8.33703 2.02104 8.25647C1.92224 8.02659 1.46117 6.91963 1.31689 6.57305C1.28552 6.49878 1.26827 6.42097 1.26827 6.33609C1.26827 6.1239 1.44078 6.04963 1.53801 6.04963C1.65563 6.04963 1.77639 6.15042 1.77639 6.27597C1.77639 6.35554 1.73718 6.40506 1.68229 6.40506C1.54899 6.40506 1.55683 6.27774 1.58349 6.1964C1.50037 6.23884 1.45333 6.31311 1.46587 6.39091C1.41441 6.40065 1.36771 6.43074 1.33414 6.47579C1.3655 6.52176 1.40628 6.55713 1.46587 6.5589C1.43921 6.68091 1.51292 6.73219 1.58349 6.76049C1.56154 6.67207 1.54585 6.56774 1.68229 6.56774C1.78109 6.56774 1.85794 6.55006 1.90342 6.47579L1.91439 6.95323C1.92067 7.09646 1.74502 7.09469 1.63211 7.05049C1.67445 7.21494 1.76071 7.30512 1.96144 7.28213C1.93069 7.29547 1.90444 7.31939 1.88642 7.35049C1.86841 7.3816 1.85954 7.41831 1.86107 7.45543C1.86107 7.58982 1.95831 7.73835 2.02104 7.78256L2.0524 6.38561V6.38384Z" fill="#FFEC2D"/>
<path d="M2.0213 1.4345C2.0213 1.4345 2.17186 1.2895 2.22361 1.362C2.30516 1.47694 1.96955 2.05164 1.96955 2.25323C1.96955 2.58567 2.16715 2.67585 2.40867 2.72183C2.57177 2.75366 2.8368 2.70945 2.8368 2.70945C2.78662 2.63341 2.75368 2.61042 2.67057 2.60512C2.76466 2.55207 2.85876 2.43183 2.85876 2.24615C2.85876 1.96146 2.75525 1.84298 2.75525 1.52115C2.75525 1.34609 2.88385 1.11621 2.88385 1.11621C2.65488 1.14274 2.54197 1.38146 2.60627 1.57243C2.58862 1.57639 2.57038 1.5754 2.55315 1.56954C2.53592 1.56368 2.52023 1.55314 2.50747 1.53883C2.49178 1.59188 2.51688 1.65377 2.55295 1.70682C2.52472 1.72451 2.50276 1.7139 2.45885 1.70329C2.46199 1.75633 2.49022 1.81646 2.56236 1.87127C2.35534 1.81115 2.22988 1.97207 2.22988 2.14182C2.22988 2.27091 2.3083 2.36286 2.38671 2.36286C2.4118 2.36286 2.44944 2.35048 2.46983 2.3328C2.48551 2.36817 2.4761 2.41591 2.46199 2.45128C2.51844 2.43359 2.55608 2.39469 2.52942 2.31512C2.57333 2.31158 2.60784 2.2939 2.63136 2.26207C2.60784 2.2267 2.57177 2.20902 2.52942 2.20902C2.56079 2.13475 2.52472 2.09408 2.47296 2.06048C2.47296 2.06048 2.5059 2.20902 2.42278 2.20902C2.38514 2.20902 2.35064 2.19664 2.35064 2.13298C2.35064 2.07817 2.39298 2.00213 2.49178 2.00743C2.58902 2.01274 2.669 2.08347 2.669 2.2603C2.669 2.42298 2.55138 2.50433 2.39769 2.50786C2.25968 2.51494 2.15461 2.43006 2.15461 2.26914C2.15461 2.05341 2.42905 1.56536 2.42905 1.37438C2.42905 1.23115 2.31614 1.14981 2.20322 1.14981C2.05894 1.14981 1.93662 1.31249 1.93662 1.31249L2.0213 1.43274V1.4345Z" fill="#FFEC2D"/>
<path d="M1.98989 5.30879C1.98989 5.66775 2.27532 5.85166 2.49958 5.85166C2.80069 5.85166 2.96222 5.6483 2.96222 5.38129C2.96222 5.23098 2.93713 5.1355 2.87596 4.99226L2.18279 3.37073C2.15768 3.30253 2.14694 3.22868 2.15143 3.155C2.15143 3.01 2.27689 2.89153 2.40705 2.88976C2.52624 2.88445 2.65798 3.01354 2.65798 3.16031C2.65798 3.33891 2.57486 3.41848 2.49017 3.41848C2.38667 3.41848 2.34589 3.37073 2.34589 3.28762C2.34589 3.23104 2.36942 3.20628 2.40549 3.20628C2.49488 3.20628 2.46822 3.34067 2.46822 3.34067C2.48002 3.33821 2.4912 3.33284 2.50095 3.32495C2.5107 3.31706 2.51878 3.30683 2.52462 3.29501C2.53047 3.28318 2.53392 3.27005 2.53474 3.25655C2.53557 3.24305 2.53373 3.22951 2.52938 3.21689C2.56295 3.20841 2.59319 3.18794 2.61563 3.15854C2.59211 3.13201 2.56388 3.11256 2.52938 3.10549C2.54977 3.02768 2.52154 2.99055 2.46194 2.97287C2.47267 2.99945 2.47542 3.02924 2.46978 3.05775C2.37569 3.02592 2.22984 3.07543 2.22984 3.25933C2.22984 3.44323 2.34275 3.59708 2.55447 3.55994C2.50429 3.58647 2.47919 3.64128 2.47292 3.70317C2.51213 3.68549 2.55447 3.68549 2.55447 3.68549C2.52938 3.73324 2.49488 3.77391 2.49644 3.87293C2.53565 3.85171 2.57329 3.81458 2.62191 3.83757C2.54349 4.0144 2.64072 4.25488 2.88851 4.31147C2.79755 4.19123 2.75364 4.06391 2.75364 3.93482C2.75364 3.51927 2.85558 3.45031 2.85558 3.16031C2.85396 3.09305 2.83819 3.02719 2.80956 2.96816C2.78093 2.90913 2.74026 2.85862 2.69091 2.82079V2.8261C2.72126 2.81907 2.74994 2.80488 2.77508 2.78446C2.80022 2.76404 2.82124 2.73786 2.83676 2.70762C2.66206 2.65333 2.47737 2.65517 2.30355 2.71293C2.24541 2.7222 2.18985 2.74609 2.14099 2.78281C2.09213 2.81954 2.05122 2.86818 2.02126 2.92512C1.98995 3.00568 1.97378 3.09269 1.97378 3.18064C1.97378 3.2686 1.98995 3.3556 2.02126 3.43616C2.12006 3.66604 2.58113 4.773 2.72541 5.11958C2.75678 5.19385 2.77403 5.27166 2.77403 5.35653C2.77403 5.56873 2.60152 5.643 2.50429 5.643C2.38667 5.643 2.26591 5.54221 2.26591 5.41666C2.26591 5.33708 2.30512 5.28757 2.36001 5.28757C2.49331 5.28757 2.48547 5.41489 2.45881 5.49623C2.54192 5.45379 2.58897 5.37952 2.57643 5.30172C2.62789 5.29197 2.67459 5.26188 2.70816 5.21684C2.6768 5.17086 2.63602 5.1355 2.57643 5.13373C2.60309 5.01172 2.52938 4.96043 2.45881 4.93214C2.48076 5.02056 2.49644 5.12489 2.36001 5.12489C2.2612 5.12489 2.18436 5.14257 2.13888 5.21684L2.1279 4.7394C2.12163 4.59617 2.29728 4.59793 2.41019 4.64214C2.36785 4.47769 2.28159 4.38751 2.08085 4.41049C2.11161 4.39716 2.13786 4.37324 2.15587 4.34213C2.17389 4.31103 2.18276 4.27431 2.18122 4.2372C2.18122 4.10281 2.08399 3.95427 2.02126 3.91007L1.98989 5.30702V5.30879Z" fill="#FFEC2D"/>
<path d="M1.98989 6.38359C1.98989 6.02463 2.27532 5.84073 2.49958 5.84073C2.80069 5.84073 2.96222 6.04408 2.96222 6.31109C2.96222 6.4614 2.93713 6.55689 2.87596 6.70012L2.18279 8.32165C2.15768 8.38986 2.14694 8.4637 2.15143 8.53738C2.15143 8.68238 2.27689 8.80086 2.40705 8.80263C2.52624 8.80793 2.65798 8.67884 2.65798 8.53208C2.65798 8.35348 2.57486 8.2739 2.49017 8.2739C2.38667 8.2739 2.34589 8.32165 2.34589 8.40476C2.34589 8.46134 2.36942 8.4861 2.40549 8.4861C2.49488 8.4861 2.46822 8.35171 2.46822 8.35171C2.48002 8.35417 2.4912 8.35954 2.50095 8.36743C2.5107 8.37533 2.51878 8.38555 2.52462 8.39737C2.53047 8.4092 2.53392 8.42233 2.53474 8.43583C2.53557 8.44934 2.53373 8.46288 2.52938 8.47549C2.56295 8.48398 2.59319 8.50444 2.61563 8.53384C2.59211 8.56037 2.56388 8.57982 2.52938 8.58689C2.54977 8.6647 2.52154 8.70183 2.46194 8.71952C2.47267 8.69293 2.47542 8.66314 2.46978 8.63464C2.37569 8.66647 2.22984 8.61695 2.22984 8.43305C2.22984 8.24915 2.34275 8.09531 2.55447 8.13244C2.50429 8.10592 2.47919 8.0511 2.47292 7.98921C2.51213 8.00689 2.55447 8.00689 2.55447 8.00689C2.52938 7.95915 2.49488 7.91848 2.49644 7.81945C2.53565 7.84067 2.57329 7.87781 2.62191 7.85482C2.54349 7.67799 2.64072 7.4375 2.88851 7.38091C2.79755 7.50116 2.75364 7.62848 2.75364 7.75756C2.75364 8.17311 2.85558 8.24207 2.85558 8.53208C2.85396 8.59933 2.83819 8.66519 2.80956 8.72423C2.78093 8.78326 2.74026 8.83377 2.69091 8.87159V8.86628C2.72126 8.87331 2.74994 8.8875 2.77508 8.90792C2.80022 8.92834 2.82124 8.95453 2.83676 8.98476C2.66206 9.03905 2.47737 9.03722 2.30355 8.97946C2.24541 8.97018 2.18985 8.9463 2.14099 8.90957C2.09213 8.87284 2.05122 8.82421 2.02126 8.76726C1.98995 8.6867 1.97378 8.5997 1.97378 8.51174C1.97378 8.42378 1.98995 8.33678 2.02126 8.25622C2.12006 8.02634 2.58113 6.91939 2.72541 6.5728C2.75678 6.49853 2.77403 6.42073 2.77403 6.33585C2.77403 6.12365 2.60152 6.04938 2.50429 6.04938C2.38667 6.04938 2.26591 6.15018 2.26591 6.27573C2.26591 6.3553 2.30512 6.40481 2.36001 6.40481C2.49331 6.40481 2.48547 6.27749 2.45881 6.19615C2.54192 6.23859 2.58897 6.31286 2.57643 6.39067C2.62789 6.40041 2.67459 6.4305 2.70816 6.47554C2.6768 6.52152 2.63602 6.55689 2.57643 6.55865C2.60309 6.68067 2.52938 6.73195 2.45881 6.76024C2.48076 6.67183 2.49644 6.5675 2.36001 6.5675C2.2612 6.5675 2.18436 6.54981 2.13888 6.47554L2.1279 6.95299C2.12163 7.09622 2.29728 7.09445 2.41019 7.05024C2.36785 7.21469 2.28159 7.30488 2.08085 7.28189C2.11161 7.29522 2.13786 7.31914 2.15587 7.35025C2.17389 7.38135 2.18276 7.41807 2.18122 7.45518C2.18122 7.58957 2.08399 7.73811 2.02126 7.78232L1.98989 6.38536V6.38359Z" fill="#FFEC2D"/>
<path d="M2.02099 16.5357C2.02099 16.5357 1.87044 16.6807 1.81869 16.6082C1.73714 16.4933 2.07275 15.9186 2.07275 15.717C2.07275 15.3845 1.87514 15.2944 1.63363 15.2484C1.47053 15.2166 1.2055 15.2608 1.2055 15.2608C1.25568 15.3368 1.28861 15.3598 1.37173 15.3651C1.27764 15.4181 1.18354 15.5384 1.18354 15.7241C1.18354 16.0088 1.28704 16.1272 1.28704 16.4491C1.28704 16.6241 1.15845 16.854 1.15845 16.854C1.38741 16.8275 1.50033 16.5888 1.43603 16.3978C1.45368 16.3938 1.47192 16.3948 1.48915 16.4007C1.50638 16.4065 1.52207 16.4171 1.53483 16.4314C1.55051 16.3783 1.52542 16.3164 1.48935 16.2634C1.51758 16.2457 1.53954 16.2563 1.58345 16.2669C1.58031 16.2139 1.55208 16.1538 1.47994 16.0989C1.68695 16.1591 1.81241 15.9981 1.81241 15.8284C1.81241 15.6993 1.734 15.6074 1.65559 15.6074C1.63049 15.6074 1.59286 15.6197 1.57247 15.6374C1.55679 15.602 1.5662 15.5543 1.58031 15.5189C1.52385 15.5366 1.48621 15.5755 1.51288 15.6551C1.46896 15.6586 1.43446 15.6763 1.41094 15.7081C1.43446 15.7435 1.47053 15.7612 1.51288 15.7612C1.48151 15.8355 1.51758 15.8761 1.56933 15.9097C1.56933 15.9097 1.5364 15.7612 1.61952 15.7612C1.65716 15.7612 1.69166 15.7736 1.69166 15.8372C1.69166 15.892 1.64931 15.9681 1.55051 15.9628C1.45328 15.9575 1.3733 15.8867 1.3733 15.7099C1.3733 15.5472 1.49092 15.4659 1.64461 15.4624C1.78262 15.4553 1.88769 15.5402 1.88769 15.7011C1.88769 15.9168 1.61324 16.4049 1.61324 16.5958C1.61324 16.7391 1.72616 16.8204 1.83907 16.8204C1.98335 16.8204 2.10568 16.6577 2.10568 16.6577L2.02099 16.5375V16.5357Z" fill="#FFEC2D"/>
<path d="M2.05234 12.6617C2.05234 12.3027 1.76692 12.1188 1.54266 12.1188C1.24155 12.1188 1.08002 12.3222 1.08002 12.5892C1.08002 12.7395 1.10511 12.835 1.16627 12.9782L1.85944 14.5997C1.88456 14.6679 1.89529 14.7418 1.89081 14.8155C1.89081 14.9605 1.76535 15.0789 1.63518 15.0807C1.51599 15.086 1.38426 14.9569 1.38426 14.8102C1.38426 14.6316 1.46738 14.552 1.55206 14.552C1.65557 14.552 1.69635 14.5997 1.69635 14.6828C1.69635 14.7394 1.67282 14.7642 1.63675 14.7642C1.54736 14.7642 1.57402 14.6298 1.57402 14.6298C1.56222 14.6322 1.55104 14.6376 1.54129 14.6455C1.53154 14.6534 1.52345 14.6636 1.51761 14.6755C1.51177 14.6873 1.50831 14.7004 1.50749 14.7139C1.50667 14.7274 1.5085 14.741 1.51286 14.7536C1.47929 14.7621 1.44904 14.7825 1.4266 14.8119C1.45013 14.8384 1.47836 14.8579 1.51286 14.865C1.49247 14.9428 1.5207 14.9799 1.58029 14.9976C1.56957 14.971 1.56682 14.9412 1.57245 14.9127C1.66655 14.9445 1.8124 14.895 1.8124 14.7111C1.8124 14.5272 1.69948 14.3734 1.48777 14.4105C1.53795 14.384 1.56304 14.3292 1.56932 14.2673C1.53011 14.285 1.48777 14.285 1.48777 14.285C1.51286 14.2372 1.54736 14.1966 1.54579 14.0975C1.50659 14.1187 1.46895 14.1559 1.42033 14.1329C1.49874 13.9561 1.40151 13.7156 1.15373 13.659C1.24468 13.7792 1.2886 13.9066 1.2886 14.0356C1.2886 14.4512 1.18666 14.5202 1.18666 14.8102C1.18827 14.8774 1.20405 14.9433 1.23268 15.0023C1.26131 15.0613 1.30198 15.1118 1.35133 15.1497V15.1444C1.32098 15.1514 1.29229 15.1656 1.26716 15.186C1.24202 15.2064 1.221 15.2326 1.20548 15.2628C1.38018 15.3171 1.56486 15.3153 1.73869 15.2575C1.79683 15.2483 1.85238 15.2244 1.90124 15.1876C1.9501 15.1509 1.99102 15.1023 2.02098 15.0453C2.05229 14.9648 2.06845 14.8778 2.06845 14.7898C2.06845 14.7019 2.05229 14.6149 2.02098 14.5343C1.92218 14.3044 1.46111 13.1975 1.31683 12.8509C1.28546 12.7766 1.26821 12.6988 1.26821 12.6139C1.26821 12.4017 1.44072 12.3275 1.53795 12.3275C1.65557 12.3275 1.77633 12.4283 1.77633 12.5538C1.77633 12.6334 1.73712 12.6829 1.68223 12.6829C1.54893 12.6829 1.55677 12.5556 1.58343 12.4742C1.50031 12.5167 1.45326 12.5909 1.46581 12.6687C1.41435 12.6785 1.36765 12.7086 1.33408 12.7536C1.36544 12.7996 1.40622 12.835 1.46581 12.8367C1.43915 12.9587 1.51286 13.01 1.58343 13.0383C1.56147 12.9499 1.54579 12.8456 1.68223 12.8456C1.78103 12.8456 1.85788 12.8279 1.90336 12.7536L1.91433 13.2311C1.92061 13.3743 1.74496 13.3725 1.63205 13.3283C1.67439 13.4928 1.76064 13.583 1.96138 13.56C1.93063 13.5733 1.90438 13.5972 1.88636 13.6283C1.86835 13.6594 1.85948 13.6961 1.86101 13.7333C1.86101 13.8676 1.95825 14.0162 2.02098 14.0604L2.05234 12.6634V12.6617Z" fill="#FFEC2D"/>
<path d="M2.05234 11.5866C2.05234 11.9456 1.76692 12.1295 1.54266 12.1295C1.24155 12.1295 1.08002 11.9261 1.08002 11.6591C1.08002 11.5088 1.10511 11.4133 1.16627 11.2701L1.85944 9.64857C1.88456 9.58036 1.89529 9.50651 1.89081 9.43283C1.89081 9.28783 1.76535 9.16936 1.63518 9.16759C1.51599 9.16228 1.38426 9.29137 1.38426 9.43814C1.38426 9.61674 1.46738 9.69631 1.55206 9.69631C1.65557 9.69631 1.69635 9.64857 1.69635 9.56546C1.69635 9.50887 1.67282 9.48411 1.63675 9.48411C1.54736 9.48411 1.57402 9.61851 1.57402 9.61851C1.56222 9.61604 1.55104 9.61068 1.54129 9.60278C1.53154 9.59489 1.52345 9.58466 1.51761 9.57284C1.51177 9.56102 1.50831 9.54788 1.50749 9.53438C1.50667 9.52088 1.5085 9.50734 1.51286 9.49472C1.47929 9.48624 1.44904 9.46577 1.4266 9.43637C1.45013 9.40985 1.47836 9.3904 1.51286 9.38332C1.49247 9.30552 1.5207 9.26838 1.58029 9.2507C1.56957 9.27728 1.56682 9.30708 1.57245 9.33558C1.66655 9.30375 1.8124 9.35326 1.8124 9.53716C1.8124 9.72107 1.69948 9.87491 1.48777 9.83777C1.53795 9.8643 1.56304 9.91912 1.56932 9.98101C1.53011 9.96332 1.48777 9.96332 1.48777 9.96332C1.51286 10.0111 1.54736 10.0517 1.54579 10.1508C1.50659 10.1295 1.46895 10.0924 1.42033 10.1154C1.49874 10.2922 1.40151 10.5327 1.15373 10.5893C1.24468 10.4691 1.2886 10.3417 1.2886 10.2127C1.2886 9.7971 1.18666 9.72814 1.18666 9.43814C1.18827 9.37088 1.20405 9.30502 1.23268 9.24599C1.26131 9.18696 1.30198 9.13645 1.35133 9.09863V9.10393C1.32098 9.0969 1.29229 9.08271 1.26716 9.06229C1.24202 9.04187 1.221 9.01569 1.20548 8.98545C1.38018 8.93116 1.56486 8.933 1.73869 8.99076C1.79683 9.00004 1.85238 9.02392 1.90124 9.06065C1.9501 9.09737 1.99102 9.14601 2.02098 9.20296C2.05229 9.28352 2.06845 9.37052 2.06845 9.45847C2.06845 9.54643 2.05229 9.63343 2.02098 9.71399C1.92218 9.94387 1.46111 11.0508 1.31683 11.3974C1.28546 11.4717 1.26821 11.5495 1.26821 11.6344C1.26821 11.8466 1.44072 11.9208 1.53795 11.9208C1.65557 11.9208 1.77633 11.82 1.77633 11.6945C1.77633 11.6149 1.73712 11.5654 1.68223 11.5654C1.54893 11.5654 1.55677 11.6927 1.58343 11.7741C1.50031 11.7316 1.45326 11.6574 1.46581 11.5795C1.41435 11.5698 1.36765 11.5397 1.33408 11.4947C1.36544 11.4487 1.40622 11.4133 1.46581 11.4116C1.43915 11.2895 1.51286 11.2383 1.58343 11.21C1.56147 11.2984 1.54579 11.4027 1.68223 11.4027C1.78103 11.4027 1.85788 11.4204 1.90336 11.4947L1.91433 11.0172C1.92061 10.874 1.74496 10.8758 1.63205 10.92C1.67439 10.7555 1.76064 10.6653 1.96138 10.6883C1.93063 10.675 1.90438 10.6511 1.88636 10.62C1.86835 10.5889 1.85948 10.5521 1.86101 10.515C1.86101 10.3806 1.95825 10.2321 2.02098 10.1879L2.05234 11.5849V11.5866Z" fill="#FFEC2D"/>
<path d="M2.02127 16.536C2.02127 16.536 2.17183 16.681 2.22358 16.6085C2.30513 16.4935 1.96952 15.9188 1.96952 15.7172C1.96952 15.3848 2.16712 15.2946 2.40864 15.2486C2.57173 15.2168 2.83677 15.261 2.83677 15.261C2.78659 15.337 2.75365 15.36 2.67054 15.3653C2.76463 15.4184 2.85873 15.5386 2.85873 15.7243C2.85873 16.009 2.75522 16.1275 2.75522 16.4493C2.75522 16.6244 2.88382 16.8542 2.88382 16.8542C2.65485 16.8277 2.54194 16.589 2.60624 16.398C2.58859 16.3941 2.57035 16.3951 2.55312 16.4009C2.53589 16.4068 2.5202 16.4173 2.50744 16.4316C2.49175 16.3786 2.51685 16.3167 2.55292 16.2636C2.52469 16.246 2.50273 16.2566 2.45882 16.2672C2.46196 16.2141 2.49019 16.154 2.56233 16.0992C2.35531 16.1593 2.22985 15.9984 2.22985 15.8286C2.22985 15.6995 2.30827 15.6076 2.38668 15.6076C2.41177 15.6076 2.44941 15.62 2.4698 15.6377C2.48548 15.6023 2.47607 15.5545 2.46196 15.5192C2.51841 15.5369 2.55605 15.5758 2.52939 15.6553C2.5733 15.6589 2.6078 15.6766 2.63133 15.7084C2.6078 15.7438 2.57173 15.7614 2.52939 15.7614C2.56076 15.8357 2.52469 15.8764 2.47293 15.91C2.47293 15.91 2.50587 15.7614 2.42275 15.7614C2.38511 15.7614 2.35061 15.7738 2.35061 15.8375C2.35061 15.8923 2.39295 15.9683 2.49175 15.963C2.58899 15.9577 2.66897 15.887 2.66897 15.7102C2.66897 15.5475 2.55135 15.4661 2.39766 15.4626C2.25965 15.4555 2.15458 15.5404 2.15458 15.7013C2.15458 15.917 2.42902 16.4051 2.42902 16.5961C2.42902 16.7393 2.31611 16.8207 2.20319 16.8207C2.05891 16.8207 1.93659 16.658 1.93659 16.658L2.02127 16.5377V16.536Z" fill="#FFEC2D"/>
<path d="M1.98986 12.6617C1.98986 12.3027 2.27529 12.1188 2.49955 12.1188C2.80066 12.1188 2.96219 12.3222 2.96219 12.5892C2.96219 12.7395 2.9371 12.835 2.87593 12.9782L2.18276 14.5997C2.15765 14.6679 2.14691 14.7418 2.1514 14.8155C2.1514 14.9605 2.27686 15.0789 2.40702 15.0807C2.52621 15.086 2.65795 14.9569 2.65795 14.8102C2.65795 14.6316 2.57483 14.552 2.49014 14.552C2.38664 14.552 2.34586 14.5997 2.34586 14.6828C2.34586 14.7394 2.36938 14.7642 2.40545 14.7642C2.49485 14.7642 2.46819 14.6298 2.46819 14.6298C2.47999 14.6322 2.49117 14.6376 2.50092 14.6455C2.51067 14.6534 2.51875 14.6636 2.52459 14.6755C2.53044 14.6873 2.53389 14.7004 2.53471 14.7139C2.53554 14.7274 2.5337 14.741 2.52935 14.7536C2.56292 14.7621 2.59316 14.7825 2.6156 14.8119C2.59208 14.8384 2.56385 14.8579 2.52935 14.865C2.54974 14.9428 2.52151 14.9799 2.46191 14.9976C2.47263 14.971 2.47539 14.9412 2.46975 14.9127C2.37566 14.9445 2.22981 14.895 2.22981 14.7111C2.22981 14.5272 2.34272 14.3734 2.55444 14.4105C2.50426 14.384 2.47916 14.3292 2.47289 14.2673C2.5121 14.285 2.55444 14.285 2.55444 14.285C2.52935 14.2372 2.49485 14.1966 2.49641 14.0975C2.53562 14.1187 2.57326 14.1559 2.62188 14.1329C2.54346 13.9561 2.64069 13.7156 2.88848 13.659C2.79752 13.7792 2.75361 13.9066 2.75361 14.0356C2.75361 14.4512 2.85555 14.5202 2.85555 14.8102C2.85393 14.8774 2.83816 14.9433 2.80953 15.0023C2.7809 15.0613 2.74023 15.1118 2.69088 15.1497V15.1444C2.72123 15.1514 2.74991 15.1656 2.77505 15.186C2.80019 15.2064 2.82121 15.2326 2.83673 15.2628C2.66203 15.3171 2.47734 15.3153 2.30352 15.2575C2.24538 15.2483 2.18982 15.2244 2.14096 15.1876C2.0921 15.1509 2.05119 15.1023 2.02123 15.0453C1.98992 14.9648 1.97375 14.8778 1.97375 14.7898C1.97375 14.7019 1.98992 14.6149 2.02123 14.5343C2.12003 14.3044 2.5811 13.1975 2.72538 12.8509C2.75675 12.7766 2.774 12.6988 2.774 12.6139C2.774 12.4017 2.60149 12.3275 2.50426 12.3275C2.38664 12.3275 2.26588 12.4283 2.26588 12.5538C2.26588 12.6334 2.30509 12.6829 2.35997 12.6829C2.49328 12.6829 2.48544 12.5556 2.45878 12.4742C2.54189 12.5167 2.58894 12.5909 2.5764 12.6687C2.62786 12.6785 2.67456 12.7086 2.70813 12.7536C2.67676 12.7996 2.63599 12.835 2.5764 12.8367C2.60306 12.9587 2.52935 13.01 2.45878 13.0383C2.48073 12.9499 2.49641 12.8456 2.35997 12.8456C2.26117 12.8456 2.18433 12.8279 2.13885 12.7536L2.12787 13.2311C2.1216 13.3743 2.29724 13.3725 2.41016 13.3283C2.36782 13.4928 2.28156 13.583 2.08082 13.56C2.11158 13.5733 2.13783 13.5972 2.15584 13.6283C2.17386 13.6594 2.18273 13.6961 2.18119 13.7333C2.18119 13.8676 2.08396 14.0162 2.02123 14.0604L1.98986 12.6634V12.6617Z" fill="#FFEC2D"/>
<path d="M1.98986 11.5869C1.98986 11.9458 2.27529 12.1297 2.49955 12.1297C2.80066 12.1297 2.96219 11.9264 2.96219 11.6594C2.96219 11.5091 2.9371 11.4136 2.87593 11.2703L2.18276 9.64881C2.15765 9.5806 2.14691 9.50676 2.1514 9.43308C2.1514 9.28808 2.27686 9.1696 2.40702 9.16783C2.52621 9.16253 2.65795 9.29161 2.65795 9.43838C2.65795 9.61698 2.57483 9.69655 2.49014 9.69655C2.38664 9.69655 2.34586 9.64881 2.34586 9.5657C2.34586 9.50912 2.36938 9.48436 2.40545 9.48436C2.49485 9.48436 2.46819 9.61875 2.46819 9.61875C2.47999 9.61629 2.49117 9.61092 2.50092 9.60303C2.51067 9.59513 2.51875 9.58491 2.52459 9.57308C2.53044 9.56126 2.53389 9.54813 2.53471 9.53463C2.53554 9.52112 2.5337 9.50758 2.52935 9.49497C2.56292 9.48648 2.59316 9.46602 2.6156 9.43662C2.59208 9.41009 2.56385 9.39064 2.52935 9.38357C2.54974 9.30576 2.52151 9.26863 2.46191 9.25094C2.47263 9.27752 2.47539 9.30732 2.46975 9.33582C2.37566 9.30399 2.22981 9.3535 2.22981 9.53741C2.22981 9.72131 2.34272 9.87515 2.55444 9.83802C2.50426 9.86454 2.47916 9.91936 2.47289 9.98125C2.5121 9.96357 2.55444 9.96357 2.55444 9.96357C2.52935 10.0113 2.49485 10.052 2.49641 10.151C2.53562 10.1298 2.57326 10.0927 2.62188 10.1156C2.54346 10.2925 2.64069 10.533 2.88848 10.5895C2.79752 10.4693 2.75361 10.342 2.75361 10.2129C2.75361 9.79735 2.85555 9.72838 2.85555 9.43838C2.85393 9.37113 2.83816 9.30526 2.80953 9.24623C2.7809 9.1872 2.74023 9.13669 2.69088 9.09887V9.10417C2.72123 9.09715 2.74991 9.08296 2.77505 9.06254C2.80019 9.04212 2.82121 9.01593 2.83673 8.9857C2.66203 8.93141 2.47734 8.93324 2.30352 8.991C2.24538 9.00028 2.18982 9.02416 2.14096 9.06089C2.0921 9.09762 2.05119 9.14625 2.02123 9.2032C1.98992 9.28376 1.97375 9.37076 1.97375 9.45872C1.97375 9.54668 1.98992 9.63368 2.02123 9.71424C2.12003 9.94412 2.5811 11.0511 2.72538 11.3977C2.75675 11.4719 2.774 11.5497 2.774 11.6346C2.774 11.8468 2.60149 11.9211 2.50426 11.9211C2.38664 11.9211 2.26588 11.8203 2.26588 11.6947C2.26588 11.6152 2.30509 11.5656 2.35997 11.5656C2.49328 11.5656 2.48544 11.693 2.45878 11.7743C2.54189 11.7319 2.58894 11.6576 2.5764 11.5798C2.62786 11.5701 2.67456 11.54 2.70813 11.4949C2.67676 11.4489 2.63599 11.4136 2.5764 11.4118C2.60306 11.2898 2.52935 11.2385 2.45878 11.2102C2.48073 11.2986 2.49641 11.403 2.35997 11.403C2.26117 11.403 2.18433 11.4206 2.13885 11.4949L2.12787 11.0175C2.1216 10.8742 2.29724 10.876 2.41016 10.9202C2.36782 10.7558 2.28156 10.6656 2.08082 10.6886C2.11158 10.6752 2.13783 10.6513 2.15584 10.6202C2.17386 10.5891 2.18273 10.5524 2.18119 10.5153C2.18119 10.3809 2.08396 10.2323 2.02123 10.1881L1.98986 11.5851V11.5869Z" fill="#FFEC2D"/>
</svg>
