<svg width="48" height="49" viewBox="0 0 48 49" fill="none" xmlns="http://www.w3.org/2000/svg">
<g clip-path="url(#clip0_212_493)">
<g clip-path="url(#clip1_212_493)">
<g clip-path="url(#clip2_212_493)">
<path d="M24 48.9795C37.2548 48.9795 48 38.2343 48 24.9795C48 11.7247 37.2548 0.979492 24 0.979492C10.7452 0.979492 0 11.7247 0 24.9795C0 38.2343 10.7452 48.9795 24 48.9795Z" fill="#1A365A"/>
<path d="M31.7618 34.2369C32.1797 34.2369 32.5333 34.0763 32.8225 33.7548C33.1118 33.4334 33.2565 33.0637 33.2565 32.6459V17.1691C33.2565 16.7512 33.1118 16.4056 32.8225 16.1325C32.5333 15.8592 32.1797 15.7227 31.7618 15.7227H16.3333C15.8832 15.7227 15.5056 15.8592 15.2002 16.1325C14.8949 16.4056 14.7422 16.7512 14.7422 17.1691V32.6459C14.7422 33.0637 14.9029 33.4334 15.2244 33.7548C15.5457 34.0763 15.9154 34.2369 16.3333 34.2369H31.7618ZM19.2261 21.6531C18.8082 21.6531 18.4708 21.5245 18.2136 21.2673C17.9565 20.978 17.8279 20.6405 17.8279 20.2548C17.8279 19.8369 17.9645 19.4913 18.2377 19.2182C18.511 18.9449 18.8565 18.8084 19.2743 18.8084C19.6922 18.8084 20.0297 18.9449 20.2869 19.2182C20.544 19.4913 20.6726 19.8369 20.6726 20.2548C20.6726 20.6405 20.5359 20.97 20.2628 21.2432C19.9895 21.5164 19.644 21.6531 19.2261 21.6531ZM24.7225 31.1512H22.0708V22.9065H24.7225V24.0637C25.3654 23.1637 26.1689 22.7137 27.1333 22.7137C28.0333 22.7137 28.7645 23.0191 29.327 23.6297C29.8895 24.2405 30.1708 25.1405 30.1708 26.3297V31.1512H27.519V26.6191C27.519 25.4297 27.0689 24.8351 26.1689 24.8351C25.5261 24.8351 25.0761 25.1566 24.819 25.7995C24.7546 25.928 24.7225 26.1531 24.7225 26.4744V31.1512ZM20.4797 31.1512H17.8279V22.9065H20.4797V31.1512Z" fill="white" fill-opacity="0.7"/>
</g>
</g>
</g>
<defs>
<clipPath id="clip0_212_493">
<rect width="48" height="48" fill="white" transform="translate(0 0.979492)"/>
</clipPath>
<clipPath id="clip1_212_493">
<rect width="48" height="48" fill="white" transform="translate(0 0.979492)"/>
</clipPath>
<clipPath id="clip2_212_493">
<rect width="48" height="48" fill="white" transform="translate(0 0.979492)"/>
</clipPath>
</defs>
</svg>
