<svg width="48" height="49" viewBox="0 0 48 49" fill="none" xmlns="http://www.w3.org/2000/svg">
<g clip-path="url(#clip0_212_487)">
<g clip-path="url(#clip1_212_487)">
<g clip-path="url(#clip2_212_487)">
<path d="M24 48.9795C37.2548 48.9795 48 38.2343 48 24.9795C48 11.7247 37.2548 0.979492 24 0.979492C10.7452 0.979492 0 11.7247 0 24.9795C0 38.2343 10.7452 48.9795 24 48.9795Z" fill="#1A365A"/>
<path d="M26.5526 22.5299L35.3977 12.248H33.3017L25.6214 21.1756L19.4872 12.248H12.4121L21.6882 25.748L12.4121 36.5302H14.5082L22.6189 27.1023L29.097 36.5302H36.1721L26.5526 22.5299ZM23.6816 25.867L22.7417 24.5228L15.2635 13.826H18.4831L24.5181 22.4586L25.4579 23.8029L33.3027 35.0239H30.0831L23.6816 25.867Z" fill="white" fill-opacity="0.7"/>
</g>
</g>
</g>
<defs>
<clipPath id="clip0_212_487">
<rect width="48" height="48" fill="white" transform="translate(0 0.979492)"/>
</clipPath>
<clipPath id="clip1_212_487">
<rect width="48" height="48" fill="white" transform="translate(0 0.979492)"/>
</clipPath>
<clipPath id="clip2_212_487">
<rect width="48" height="48" fill="white" transform="translate(0 0.979492)"/>
</clipPath>
</defs>
</svg>
