<svg width="38" height="33" viewBox="0 0 38 33" fill="none" xmlns="http://www.w3.org/2000/svg">
<g filter="url(#filter0_dd_760_2170)">
<g clip-path="url(#clip0_760_2170)">
<rect x="7" y="3" width="24" height="18" rx="3" fill="#1A47B8"/>
<path fill-rule="evenodd" clip-rule="evenodd" d="M9.55311 3H7V6L28.433 21L31 21V18L9.55311 3Z" fill="white"/>
<path d="M7.85154 3L31 19.2425V21L30.1684 21L7 4.74067V3H7.85154Z" fill="#F93939"/>
<path fill-rule="evenodd" clip-rule="evenodd" d="M28.7143 3H31V6C31 6 16.1541 15.9937 9.28571 21H7V18L28.7143 3Z" fill="white"/>
<path d="M31 3H30.2249L7 19.2565V21H7.85154L31 4.75382V3Z" fill="#F93939"/>
<path fill-rule="evenodd" clip-rule="evenodd" d="M15.7281 3H22.2919V8.55218H31V15.4442H22.2919V21H15.7281V15.4442H7V8.55218H15.7281V3Z" fill="white"/>
<path fill-rule="evenodd" clip-rule="evenodd" d="M17.1053 3H20.8947V9.92308H31V14.0769H20.8947V21H17.1053V14.0769H7V9.92308H17.1053V3Z" fill="#F93939"/>
</g>
</g>
<defs>
<filter id="filter0_dd_760_2170" x="0.142857" y="0.714285" width="37.7143" height="31.7143" filterUnits="userSpaceOnUse" color-interpolation-filters="sRGB">
<feFlood flood-opacity="0" result="BackgroundImageFix"/>
<feColorMatrix in="SourceAlpha" type="matrix" values="0 0 0 0 0 0 0 0 0 0 0 0 0 0 0 0 0 0 127 0" result="hardAlpha"/>
<feOffset dy="4.57143"/>
<feGaussianBlur stdDeviation="3.42857"/>
<feComposite in2="hardAlpha" operator="out"/>
<feColorMatrix type="matrix" values="0 0 0 0 0.258824 0 0 0 0 0.278431 0 0 0 0 0.298039 0 0 0 0.08 0"/>
<feBlend mode="normal" in2="BackgroundImageFix" result="effect1_dropShadow_760_2170"/>
<feColorMatrix in="SourceAlpha" type="matrix" values="0 0 0 0 0 0 0 0 0 0 0 0 0 0 0 0 0 0 127 0" result="hardAlpha"/>
<feOffset/>
<feGaussianBlur stdDeviation="0.285714"/>
<feComposite in2="hardAlpha" operator="out"/>
<feColorMatrix type="matrix" values="0 0 0 0 0.258824 0 0 0 0 0.278431 0 0 0 0 0.298039 0 0 0 0.32 0"/>
<feBlend mode="normal" in2="effect1_dropShadow_760_2170" result="effect2_dropShadow_760_2170"/>
<feBlend mode="normal" in="SourceGraphic" in2="effect2_dropShadow_760_2170" result="shape"/>
</filter>
<clipPath id="clip0_760_2170">
<rect x="7" y="3" width="24" height="18" rx="3" fill="white"/>
</clipPath>
</defs>
</svg>
