<svg width="48" height="49" viewBox="0 0 48 49" fill="none" xmlns="http://www.w3.org/2000/svg">
<g clip-path="url(#clip0_212_499)">
<g clip-path="url(#clip1_212_499)">
<g clip-path="url(#clip2_212_499)">
<path d="M24 48.9795C37.2548 48.9795 48 38.2343 48 24.9795C48 11.7247 37.2548 0.979492 24 0.979492C10.7452 0.979492 0 11.7247 0 24.9795C0 38.2343 10.7452 48.9795 24 48.9795Z" fill="#1A365A"/>
<mask id="mask0_212_499" style="mask-type:luminance" maskUnits="userSpaceOnUse" x="12" y="16" width="24" height="17">
<path d="M12.5723 16.9795H35.4294V32.9795H12.5723V16.9795Z" fill="white"/>
</mask>
<g mask="url(#mask0_212_499)">
<path fill-rule="evenodd" clip-rule="evenodd" d="M15.285 32.6193C16.1988 32.807 17.6856 32.8789 22.0386 32.9588C25.669 33.0166 28.8678 32.9553 32.6347 32.673C33.2368 32.5701 33.793 32.2868 34.2292 31.8608C34.5074 31.584 34.6682 31.3342 34.8564 30.8608C35.1609 30.1111 35.2687 29.388 35.4026 27.3442C35.4383 26.7281 35.4383 23.2293 35.4026 22.613C35.3942 22.4863 35.3865 22.356 35.3785 22.223C35.3056 20.9988 35.2185 19.5362 34.4536 18.337C34.0592 17.8193 33.3875 17.4178 32.6712 17.2839C31.7747 17.1144 27.9505 16.9805 24.0092 16.9805C20.0591 16.9805 16.2433 17.1144 15.3478 17.2839C14.7744 17.3908 14.2639 17.6495 13.8249 18.0513C12.9831 18.829 12.848 20.1096 12.726 21.2654C12.7134 21.3858 12.7008 21.505 12.6875 21.6221C12.5179 23.8674 12.5506 25.8769 12.6875 28.3349C12.777 29.424 12.8398 29.8698 13.0009 30.4057C13.1888 31.0489 13.431 31.5126 13.7354 31.8164C14.1294 32.2178 14.6667 32.4948 15.285 32.6193ZM27.8035 24.7445C26.2846 23.9356 24.8123 23.1692 23.336 22.4007C22.7767 22.1096 22.2168 21.8182 21.6536 21.524V21.5375C21.6504 21.5358 21.6472 21.5342 21.644 21.5325V27.9415C22.7132 27.3622 23.8111 26.8071 24.857 26.2782C25.9225 25.7394 26.934 25.228 27.8065 24.7461H27.8008C27.8017 24.7455 27.8026 24.745 27.8035 24.7445Z" fill="white" fill-opacity="0.7"/>
<path d="M27.7981 24.7468C25.7024 23.6306 21.6445 21.5332 21.6445 21.5332L27.0547 25.1571C27.0552 25.1571 26.0692 25.7019 27.7981 24.7468Z" fill="#E8E0E0" fill-opacity="0.1"/>
</g>
</g>
</g>
</g>
<defs>
<clipPath id="clip0_212_499">
<rect width="48" height="48" fill="white" transform="translate(0 0.979492)"/>
</clipPath>
<clipPath id="clip1_212_499">
<rect width="48" height="48" fill="white" transform="translate(0 0.979492)"/>
</clipPath>
<clipPath id="clip2_212_499">
<rect width="48" height="48" fill="white" transform="translate(0 0.979492)"/>
</clipPath>
</defs>
</svg>
